<?xml version="1.0" standalone="no"?>
<!DOCTYPE svg PUBLIC "-//W3C//DTD SVG 20010904//EN"
 "http://www.w3.org/TR/2001/REC-SVG-20010904/DTD/svg10.dtd">
<svg version="1.0" xmlns="http://www.w3.org/2000/svg"
 width="1000.000000pt" height="1000.000000pt" viewBox="0 0 1000.000000 1000.000000"
 preserveAspectRatio="xMidYMid meet">
<metadata>
Created by potrace 1.14, written by Peter Selinger 2001-2017
</metadata>
<g transform="translate(0.000000,1000.000000) scale(0.100000,-0.100000)"
fill="#000000" stroke="none">
<path d="M5875 8850 c-3 -5 1 -10 9 -10 9 0 16 5 16 10 0 6 -4 10 -9 10 -6 0
-13 -4 -16 -10z"/>
<path d="M6394 8775 c-19 -14 -18 -14 4 -15 13 0 22 6 22 15 0 19 -1 19 -26 0z"/>
<path d="M5721 8764 c0 -11 3 -14 6 -6 3 7 2 16 -1 19 -3 4 -6 -2 -5 -13z"/>
<path d="M5886 8743 c-6 -14 -5 -15 5 -6 7 7 10 15 7 18 -3 3 -9 -2 -12 -12z"/>
<path d="M6021 8750 c-7 -4 -12 -12 -10 -18 3 -7 10 -6 22 3 20 14 9 29 -12
15z"/>
<path d="M6345 8730 c-3 -5 -1 -10 4 -10 6 0 11 5 11 10 0 6 -2 10 -4 10 -3 0
-8 -4 -11 -10z"/>
<path d="M6362 8657 c-23 -25 -30 -61 -10 -55 6 2 22 21 35 41 27 43 10 52
-25 14z"/>
<path d="M5675 8649 c-4 -6 -5 -13 -2 -16 7 -7 27 6 27 18 0 12 -17 12 -25 -2z"/>
<path d="M6250 8650 c0 -5 7 -10 15 -10 8 0 15 5 15 10 0 6 -7 10 -15 10 -8 0
-15 -4 -15 -10z"/>
<path d="M5801 8577 c-13 -21 -12 -21 5 -5 10 10 16 20 13 22 -3 3 -11 -5 -18
-17z"/>
<path d="M5880 8575 c0 -26 7 -30 28 -17 16 10 5 42 -14 42 -8 0 -14 -10 -14
-25z"/>
<path d="M6192 8588 c5 -15 28 -18 29 -3 0 6 -7 12 -17 13 -10 3 -15 -1 -12
-10z"/>
<path d="M6316 8574 c-5 -14 -4 -15 9 -4 17 14 19 20 6 20 -5 0 -12 -7 -15
-16z"/>
<path d="M6410 8579 c0 -5 5 -7 10 -4 6 3 10 8 10 11 0 2 -4 4 -10 4 -5 0 -10
-5 -10 -11z"/>
<path d="M6115 8569 c-9 -14 -2 -20 14 -10 8 6 9 11 3 15 -6 3 -14 1 -17 -5z"/>
<path d="M6320 8529 c0 -5 5 -7 10 -4 6 3 10 8 10 11 0 2 -4 4 -10 4 -5 0 -10
-5 -10 -11z"/>
<path d="M6750 8530 c0 -5 7 -10 15 -10 8 0 15 5 15 10 0 6 -7 10 -15 10 -8 0
-15 -4 -15 -10z"/>
<path d="M5738 8501 c-14 -15 -14 -19 1 -48 18 -33 31 -32 49 3 9 18 7 24 -11
41 -20 17 -24 18 -39 4z"/>
<path d="M6081 8501 c-12 -22 -15 -92 -3 -75 4 6 15 13 25 17 14 5 17 15 15
39 -4 37 -22 47 -37 19z"/>
<path d="M6156 8504 c-8 -22 -4 -25 11 -9 7 8 9 16 4 19 -5 3 -12 -1 -15 -10z"/>
<path d="M5995 8480 c-4 -16 -14 -34 -23 -39 -13 -8 -14 -12 -5 -22 17 -17 43
-3 43 23 0 13 3 33 6 46 4 12 2 22 -4 22 -6 0 -13 -13 -17 -30z"/>
<path d="M6717 8496 c-3 -8 -3 -16 0 -19 9 -10 33 5 33 19 0 18 -26 18 -33 0z"/>
<path d="M6367 8493 c-13 -12 -7 -61 8 -67 24 -9 19 -39 -5 -33 -11 3 -18 1
-15 -4 3 -5 1 -17 -4 -27 -7 -13 -7 -22 1 -30 17 -17 28 -15 22 3 -4 9 -1 15
7 15 16 0 43 76 33 92 -4 7 -9 6 -14 -2 -4 -7 -13 -9 -19 -5 -9 5 -8 13 3 31
9 13 16 26 16 29 0 7 -25 6 -33 -2z"/>
<path d="M6457 8486 c-23 -17 -22 -36 2 -36 27 0 45 24 29 38 -9 7 -18 7 -31
-2z"/>
<path d="M5950 8472 c0 -7 -13 -12 -30 -12 -16 0 -30 -5 -30 -10 0 -6 11 -8
28 -4 32 8 49 21 39 31 -4 3 -7 1 -7 -5z"/>
<path d="M6150 8443 c0 -13 5 -23 10 -23 13 0 13 11 0 30 -8 12 -10 11 -10 -7z"/>
<path d="M6916 8445 c-3 -8 -12 -15 -21 -15 -8 0 -15 -4 -15 -10 0 -16 26 -11
43 8 19 21 22 32 8 32 -5 0 -11 -7 -15 -15z"/>
<path d="M5560 8430 c0 -5 6 -10 14 -10 8 0 18 5 21 10 3 6 -3 10 -14 10 -12
0 -21 -4 -21 -10z"/>
<path d="M5830 8407 c0 -18 -5 -38 -12 -45 -9 -9 -7 -12 8 -12 28 0 36 10 23
27 -9 10 -8 13 5 13 19 0 21 21 4 38 -20 20 -28 14 -28 -21z"/>
<path d="M6240 8418 c0 -19 18 -43 25 -36 9 9 -4 48 -16 48 -5 0 -9 -6 -9 -12z"/>
<path d="M6320 8410 c0 -5 5 -10 10 -10 6 0 10 5 10 10 0 6 -4 10 -10 10 -5 0
-10 -4 -10 -10z"/>
<path d="M6445 8363 c-19 -21 -31 -39 -26 -41 11 -4 71 56 71 69 0 16 -11 9
-45 -28z"/>
<path d="M6747 8383 c-4 -3 -7 -11 -7 -17 0 -6 5 -5 12 2 6 6 9 14 7 17 -3 3
-9 2 -12 -2z"/>
<path d="M6190 8365 c-10 -12 -10 -15 3 -15 8 0 17 7 21 15 3 8 2 15 -3 15 -5
0 -14 -7 -21 -15z"/>
<path d="M5382 8353 c5 -25 28 -28 28 -4 0 12 -6 21 -16 21 -9 0 -14 -7 -12
-17z"/>
<path d="M6134 8325 c-9 -14 -24 -25 -33 -25 -12 0 -13 -2 -3 -9 11 -7 11 -9
-1 -14 -8 -3 -20 0 -26 6 -6 6 -14 8 -18 4 -3 -4 3 -16 15 -27 20 -19 24 -19
56 -6 19 8 38 11 41 8 4 -4 4 4 0 17 -5 15 -3 26 5 31 14 9 7 40 -9 40 -6 0
-18 -11 -27 -25z"/>
<path d="M6495 8341 c-6 -11 9 -23 19 -14 9 9 7 23 -3 23 -6 0 -12 -4 -16 -9z"/>
<path d="M6793 8343 c-18 -7 -16 -23 2 -23 8 0 15 7 15 15 0 8 -1 15 -2 14 -2
0 -9 -3 -15 -6z"/>
<path d="M5757 8322 c1 -8 3 -22 3 -33 0 -10 5 -19 11 -19 7 0 9 10 5 25 -5
18 -2 25 9 25 8 0 15 5 15 10 0 7 -6 7 -19 0 -11 -5 -21 -7 -24 -2 -2 4 -2 1
0 -6z"/>
<path d="M5467 8314 c-10 -11 -9 -64 2 -64 5 0 11 7 15 15 7 18 -7 59 -17 49z"/>
<path d="M5836 8306 c3 -8 -6 -28 -20 -43 -29 -32 -32 -45 -12 -62 17 -14 31
2 22 24 -3 9 1 15 9 15 24 0 37 36 23 60 -15 23 -30 27 -22 6z"/>
<path d="M6565 8300 c-26 -29 -15 -32 15 -4 13 13 20 24 14 24 -6 0 -19 -9
-29 -20z"/>
<path d="M6736 8304 c-4 -9 -4 -19 -2 -21 8 -8 26 8 26 23 0 19 -16 18 -24 -2z"/>
<path d="M6345 8299 c-4 -6 -5 -13 -2 -16 7 -7 27 6 27 18 0 12 -17 12 -25 -2z"/>
<path d="M6386 8285 c4 -8 10 -15 15 -15 5 0 9 7 9 15 0 8 -7 15 -15 15 -9 0
-12 -6 -9 -15z"/>
<path d="M5942 8258 c2 -13 8 -23 13 -23 6 0 11 10 13 23 2 15 -2 22 -13 22
-11 0 -15 -7 -13 -22z"/>
<path d="M6280 8271 c0 -12 29 -35 36 -28 4 3 -1 13 -9 22 -17 17 -27 19 -27
6z"/>
<path d="M6025 8250 c-3 -5 -1 -10 4 -10 6 0 11 5 11 10 0 6 -2 10 -4 10 -3 0
-8 -4 -11 -10z"/>
<path d="M6213 8241 c-18 -9 -37 -26 -44 -39 -7 -12 -18 -21 -25 -18 -19 7
-87 -58 -82 -80 2 -11 10 -18 16 -17 7 2 10 -6 8 -20 -2 -13 -10 -21 -20 -21
-9 1 -16 -5 -16 -12 0 -8 -10 -19 -23 -25 -13 -6 -27 -20 -32 -32 -6 -14 -21
-23 -38 -25 -20 -2 -27 -8 -25 -20 1 -9 -3 -32 -11 -49 -15 -36 -7 -87 12 -80
7 2 13 16 15 30 5 42 22 32 22 -13 0 -27 -4 -40 -14 -40 -8 0 -16 -16 -20 -40
-4 -23 -11 -38 -16 -35 -6 3 -10 1 -10 -5 0 -15 -51 -59 -69 -60 -10 0 -12 10
-7 44 7 42 -8 96 -26 96 -15 0 -8 -32 9 -45 13 -10 15 -16 6 -26 -6 -8 -14
-28 -18 -46 -4 -21 -11 -30 -20 -27 -19 8 -27 -12 -10 -26 19 -16 19 -39 0
-46 -20 -8 -19 -30 1 -38 13 -5 15 -15 10 -44 -4 -27 -3 -31 3 -16 12 27 33
42 39 26 2 -7 10 -12 18 -12 9 0 14 -12 14 -36 0 -21 4 -33 10 -29 6 4 9 14 8
23 -2 9 8 22 23 29 15 7 34 32 46 60 31 72 34 93 15 101 -12 5 -7 8 18 12 19
3 40 2 47 -3 16 -12 33 0 33 23 0 10 10 27 23 37 12 10 28 30 36 46 9 17 20
25 30 22 10 -3 28 8 45 26 30 31 29 34 -9 54 -6 3 -5 7 3 11 16 7 16 47 0 42
-7 -3 -19 -18 -28 -34 -20 -36 -42 -37 -50 -4 -5 22 -7 23 -13 7 -4 -10 -2
-28 4 -39 6 -11 9 -21 7 -22 -2 -1 -22 -10 -45 -20 -25 -11 -40 -23 -37 -31 3
-7 1 -16 -5 -19 -5 -4 -13 3 -16 15 -7 21 17 48 43 49 6 0 12 6 12 14 0 8 6
17 13 19 8 4 7 6 -3 6 -8 1 -27 -6 -42 -13 -32 -17 -43 -7 -34 28 4 18 15 25
46 30 22 3 41 11 41 16 1 6 2 14 3 19 0 5 4 13 9 17 4 4 7 20 7 36 0 16 5 28
13 28 7 0 28 14 45 31 28 27 32 38 32 81 0 40 3 49 15 44 17 -6 20 9 4 20 -7
4 -2 15 15 31 14 13 26 30 26 38 0 8 -1 14 -2 14 -2 -1 -17 -9 -35 -18z m-53
-105 c0 -24 -25 -43 -35 -26 -6 10 16 50 27 50 5 0 8 -11 8 -24z m-20 -81 c0
-8 -4 -15 -10 -15 -5 0 -10 7 -10 15 0 8 5 15 10 15 6 0 10 -7 10 -15z m-50
-49 c0 -2 -9 -6 -20 -9 -11 -3 -18 -1 -14 4 5 9 34 13 34 5z m-197 -411 c-10
-7 -20 -12 -21 -10 -7 7 23 33 31 28 5 -3 0 -11 -10 -18z m-23 -54 c0 -11 5
-23 10 -26 15 -10 12 -35 -5 -35 -8 0 -15 4 -15 9 0 5 -3 23 -6 40 -4 20 -3
31 5 31 6 0 11 -9 11 -19z"/>
<path d="M7006 8251 c-4 -5 -2 -12 3 -15 5 -4 12 -2 15 3 4 5 2 12 -3 15 -5 4
-12 2 -15 -3z"/>
<path d="M6426 8238 c3 -5 -2 -11 -10 -14 -9 -3 -16 -12 -16 -20 0 -8 -10 -14
-24 -14 -14 0 -28 -5 -32 -11 -9 -15 16 -30 39 -23 10 3 25 0 34 -8 14 -11 15
-10 9 9 -7 23 11 63 29 63 5 0 17 6 26 13 14 11 11 12 -21 12 -21 0 -36 -3
-34 -7z"/>
<path d="M5520 8229 c0 -5 5 -7 10 -4 6 3 10 8 10 11 0 2 -4 4 -10 4 -5 0 -10
-5 -10 -11z"/>
<path d="M6973 8223 c9 -9 19 -14 23 -11 10 10 -6 28 -24 28 -15 0 -15 -1 1
-17z"/>
<path d="M5415 8220 c-3 -5 -1 -10 4 -10 6 0 11 5 11 10 0 6 -2 10 -4 10 -3 0
-8 -4 -11 -10z"/>
<path d="M5913 8213 c-15 -5 -17 -49 -4 -57 5 -4 21 -2 34 3 23 9 24 12 14 35
-12 26 -20 29 -44 19z m27 -32 c0 -6 -4 -13 -10 -16 -5 -3 -10 1 -10 9 0 9 5
16 10 16 6 0 10 -4 10 -9z"/>
<path d="M6721 8213 c-1 -7 -7 -13 -15 -13 -7 0 -19 -7 -26 -15 -7 -8 -22 -15
-34 -15 -15 0 -22 -7 -23 -21 -2 -26 -14 -39 -20 -21 -6 17 -32 15 -39 -3 -4
-8 -10 -13 -14 -10 -10 6 -84 -64 -76 -72 3 -4 16 3 29 15 13 12 29 22 35 22
7 0 12 3 12 8 0 4 10 13 21 21 16 9 24 10 29 2 5 -8 14 -9 33 -2 24 9 31 21
29 42 -1 4 6 5 16 3 19 -5 56 40 49 59 -4 9 -6 9 -6 0z"/>
<path d="M5988 8198 c-7 -18 2 -39 13 -33 5 4 6 -2 2 -12 -6 -16 -5 -17 13 -3
30 23 44 38 44 46 0 3 -7 0 -16 -7 -14 -11 -18 -11 -29 4 -15 20 -21 21 -27 5z"/>
<path d="M6505 8201 c-6 -11 9 -23 19 -14 9 9 7 23 -3 23 -6 0 -12 -4 -16 -9z"/>
<path d="M5775 8190 c-3 -5 -1 -10 4 -10 6 0 11 5 11 10 0 6 -2 10 -4 10 -3 0
-8 -4 -11 -10z"/>
<path d="M6821 8182 c-13 -25 -14 -32 -2 -32 9 0 23 41 16 48 -2 2 -8 -5 -14
-16z"/>
<path d="M6926 8185 c-3 -8 -12 -15 -21 -15 -8 0 -15 -7 -15 -16 0 -11 5 -14
16 -10 9 3 22 6 30 6 8 0 14 9 14 19 0 11 6 22 13 24 6 3 2 6 -9 6 -12 1 -24
-6 -28 -14z"/>
<path d="M6450 8166 c0 -2 7 -7 16 -10 8 -3 12 -2 9 4 -6 10 -25 14 -25 6z"/>
<path d="M5960 8153 c0 -5 -11 -21 -25 -37 -22 -25 -23 -31 -11 -38 32 -18 95
19 65 38 -5 3 -7 14 -4 25 4 13 2 19 -9 19 -9 0 -16 -3 -16 -7z m-5 -63 c3 -5
1 -10 -4 -10 -6 0 -11 5 -11 10 0 6 2 10 4 10 3 0 8 -4 11 -10z"/>
<path d="M6233 8145 c-17 -19 -16 -25 2 -25 8 0 15 9 15 20 0 23 -1 24 -17 5z"/>
<path d="M7001 8147 c-15 -19 -1 -30 18 -13 9 8 25 16 36 19 14 3 10 5 -11 6
-17 0 -37 -5 -43 -12z"/>
<path d="M5860 8114 c0 -8 5 -12 10 -9 6 3 10 10 10 16 0 5 -4 9 -10 9 -5 0
-10 -7 -10 -16z"/>
<path d="M6364 8119 c-3 -6 -15 -9 -25 -6 -15 4 -19 0 -19 -25 0 -17 4 -27 10
-23 6 4 8 10 5 15 -3 5 -1 11 4 14 5 4 12 2 16 -4 11 -18 45 -11 45 9 0 21
-26 36 -36 20z"/>
<path d="M5780 8109 c0 -5 5 -7 10 -4 6 3 10 8 10 11 0 2 -4 4 -10 4 -5 0 -10
-5 -10 -11z"/>
<path d="M6840 8110 c0 -5 5 -10 10 -10 6 0 10 5 10 10 0 6 -4 10 -10 10 -5 0
-10 -4 -10 -10z"/>
<path d="M6950 8104 c0 -8 5 -12 10 -9 6 3 10 10 10 16 0 5 -4 9 -10 9 -5 0
-10 -7 -10 -16z"/>
<path d="M6711 8094 c0 -11 3 -14 6 -6 3 7 2 16 -1 19 -3 4 -6 -2 -5 -13z"/>
<path d="M6787 8099 c-18 -11 -14 -29 6 -29 7 0 13 9 13 20 0 11 0 20 -1 20 0
0 -8 -5 -18 -11z"/>
<path d="M6260 8090 c0 -5 5 -10 10 -10 6 0 10 5 10 10 0 6 -4 10 -10 10 -5 0
-10 -4 -10 -10z"/>
<path d="M5830 8048 c0 -18 -3 -43 -6 -55 -4 -14 -2 -23 5 -23 6 0 11 7 11 16
0 12 7 14 29 9 29 -6 58 14 33 23 -7 2 -12 12 -12 22 0 10 -8 20 -17 24 -10 3
-24 9 -30 12 -9 4 -13 -5 -13 -28z m60 -38 c0 -5 -4 -10 -10 -10 -5 0 -10 5
-10 10 0 6 5 10 10 10 6 0 10 -4 10 -10z"/>
<path d="M6290 8051 c0 -4 -10 -19 -21 -32 -15 -16 -23 -20 -26 -11 -3 6 -9
10 -14 6 -5 -3 -2 -13 7 -21 15 -15 15 -18 0 -28 -19 -14 -22 -39 -3 -32 6 2
12 9 12 15 0 6 15 27 33 47 43 49 44 52 27 59 -8 3 -15 2 -15 -3z"/>
<path d="M6750 8049 c0 -5 5 -7 10 -4 6 3 10 8 10 11 0 2 -4 4 -10 4 -5 0 -10
-5 -10 -11z"/>
<path d="M5720 8030 c0 -5 5 -10 10 -10 6 0 10 5 10 10 0 6 -4 10 -10 10 -5 0
-10 -4 -10 -10z"/>
<path d="M6713 8023 c-20 -8 -15 -23 7 -23 11 0 20 7 20 15 0 15 -6 17 -27 8z"/>
<path d="M6619 8007 c-9 -7 -21 -22 -28 -34 -6 -13 -18 -23 -26 -23 -8 0 -15
-4 -15 -9 0 -4 -12 -20 -27 -35 -14 -14 -24 -29 -21 -31 11 -11 68 28 87 60
11 19 25 35 31 35 5 0 10 7 10 15 0 8 5 15 10 15 6 0 10 5 10 10 0 13 -11 12
-31 -3z"/>
<path d="M6441 7997 c-37 -18 -78 -97 -52 -97 6 0 16 12 23 27 14 28 59 47 91
37 18 -6 22 3 9 22 -12 19 -46 24 -71 11z"/>
<path d="M6530 8006 c0 -2 9 -6 20 -9 11 -3 18 -1 14 4 -5 9 -34 13 -34 5z"/>
<path d="M7190 8000 c0 -5 -5 -10 -12 -10 -6 0 -23 -13 -37 -29 -14 -15 -33
-31 -41 -34 -12 -4 -12 -6 2 -6 9 -1 30 10 46 24 17 14 33 25 36 25 4 0 16 9
28 20 l22 20 -22 0 c-12 0 -22 -4 -22 -10z"/>
<path d="M5889 7969 c-8 -16 -8 -27 2 -45 9 -17 15 -21 20 -12 4 6 3 20 -2 30
-6 12 -6 18 1 18 5 0 10 7 10 15 0 22 -18 18 -31 -6z"/>
<path d="M6148 7969 c-10 -5 -18 -16 -18 -24 0 -16 38 -40 48 -31 3 3 2 6 -3
6 -4 0 -2 6 4 13 17 21 -8 49 -31 36z"/>
<path d="M6658 7956 c-23 -17 -23 -26 2 -26 11 0 20 2 20 4 0 2 3 11 6 20 7
19 -5 20 -28 2z"/>
<path d="M6980 7960 c0 -5 5 -10 10 -10 6 0 10 5 10 10 0 6 -4 10 -10 10 -5 0
-10 -4 -10 -10z"/>
<path d="M8284 7946 c-56 -20 -100 -59 -122 -105 -26 -54 -27 -61 -8 -61 8 0
22 -9 30 -21 8 -12 19 -18 25 -14 6 3 11 1 11 -4 0 -6 -7 -11 -15 -11 -25 0
-14 -48 12 -55 13 -3 23 -10 23 -15 0 -6 18 -10 41 -10 24 0 38 -4 34 -10 -3
-5 -19 -10 -34 -10 -32 0 -54 -19 -43 -37 4 -7 27 -15 51 -18 48 -6 71 -19 71
-41 0 -8 11 -14 26 -14 26 0 26 0 10 -25 -9 -14 -14 -30 -11 -35 7 -11 111 -5
155 10 52 17 116 96 124 155 26 170 -117 337 -285 334 -35 -1 -78 -6 -95 -13z
m189 -47 c35 -18 77 -61 77 -80 0 -30 -39 -29 -103 5 -62 31 -82 60 -55 77 18
12 55 11 81 -2z"/>
<path d="M5750 7930 c0 -5 7 -10 16 -10 8 0 12 5 9 10 -3 6 -10 10 -16 10 -5
0 -9 -4 -9 -10z"/>
<path d="M6320 7911 c-8 -16 -6 -21 10 -26 27 -9 44 3 30 20 -8 10 -7 14 2 18
7 3 3 6 -9 6 -12 1 -27 -8 -33 -18z"/>
<path d="M6737 7905 c-15 -14 -27 -30 -27 -36 0 -11 46 16 73 43 17 17 17 18
0 18 -10 0 -31 -11 -46 -25z"/>
<path d="M1479 7896 c-53 -15 -128 -64 -159 -103 -58 -74 -78 -200 -45 -281
22 -51 91 -120 129 -127 17 -4 40 -9 50 -12 15 -4 18 -2 12 12 -5 14 -2 16 19
11 14 -3 36 -9 50 -12 21 -5 25 -3 25 15 0 16 6 21 26 21 21 0 25 3 19 18 -18
42 -17 59 5 65 16 4 20 10 15 30 -5 17 -2 26 9 30 9 4 16 16 16 27 0 20 4 21
60 17 33 -2 60 -1 60 2 0 19 -83 98 -143 137 -55 36 -68 49 -65 67 2 18 10 23
44 25 38 3 47 -2 90 -42 56 -54 77 -59 68 -18 -8 36 -77 99 -123 112 -66 17
-116 19 -162 6z"/>
<path d="M6210 7906 c0 -2 7 -6 15 -10 8 -3 15 -1 15 4 0 6 -7 10 -15 10 -8 0
-15 -2 -15 -4z"/>
<path d="M5833 7893 c-21 -8 -15 -31 10 -35 12 -2 21 -7 19 -13 -2 -5 -12 -9
-22 -7 -14 2 -20 -2 -20 -17 0 -27 15 -34 39 -19 51 32 27 113 -26 91z"/>
<path d="M6573 7886 c-15 -8 -19 -16 -13 -26 11 -18 60 2 60 25 0 18 -16 18
-47 1z"/>
<path d="M6309 7866 c-1 -3 -2 -10 -3 -15 0 -4 -22 -28 -48 -53 -27 -25 -48
-49 -48 -55 0 -5 9 -18 20 -28 17 -15 20 -16 25 -3 3 8 5 19 4 24 -5 18 36 74
54 74 11 0 17 8 17 24 0 21 -18 47 -21 32z"/>
<path d="M6675 7861 c-3 -5 -1 -12 5 -16 5 -3 10 1 10 9 0 18 -6 21 -15 7z"/>
<path d="M5790 7851 c0 -6 -7 -11 -15 -11 -8 0 -17 -12 -21 -27 -3 -16 -7 -34
-10 -40 -2 -7 2 -13 9 -13 12 0 37 44 37 66 0 7 5 14 12 16 9 3 9 6 0 12 -7 4
-12 2 -12 -3z"/>
<path d="M6443 7829 c-18 -16 -33 -34 -33 -40 0 -5 -7 -9 -15 -9 -8 0 -15 -5
-15 -10 0 -15 52 -1 76 22 12 10 27 18 35 16 7 -2 15 5 17 15 2 10 -2 17 -11
17 -9 0 -17 4 -19 10 -1 5 -18 -4 -35 -21z"/>
<path d="M6870 7805 c-7 -9 -10 -18 -7 -22 8 -7 37 15 37 28 0 14 -16 11 -30
-6z"/>
<path d="M6533 7773 c-33 -23 -28 -34 7 -17 17 9 30 20 30 25 0 13 -11 10 -37
-8z"/>
<path d="M6403 7741 c-3 -12 -13 -21 -24 -21 -11 0 -19 -7 -19 -15 0 -19 37
-20 56 -1 17 17 18 42 3 51 -6 4 -13 -2 -16 -14z"/>
<path d="M5777 7743 c-4 -3 -7 -13 -7 -22 1 -13 3 -13 11 2 11 19 8 33 -4 20z"/>
<path d="M6171 7718 c-5 -13 -21 -35 -35 -50 -28 -29 -37 -60 -13 -39 8 6 16
8 19 5 8 -7 88 44 88 56 0 6 -4 10 -9 10 -5 0 -13 9 -16 20 -8 26 -23 25 -34
-2z"/>
<path d="M7046 7705 c-24 -19 -12 -39 14 -22 11 6 20 17 20 24 0 17 -10 16
-34 -2z"/>
<path d="M6286 7681 c-38 -8 -47 -31 -12 -31 15 0 30 8 36 20 6 11 9 19 8 19
-2 -1 -16 -4 -32 -8z"/>
<path d="M6495 7670 c-4 -6 9 -10 32 -10 28 0 34 3 23 10 -20 13 -47 13 -55 0z"/>
<path d="M6938 7663 c7 -3 16 -2 19 1 4 3 -2 6 -13 5 -11 0 -14 -3 -6 -6z"/>
<path d="M6182 7601 c-24 -26 -50 -61 -58 -77 -9 -16 -21 -36 -29 -44 -7 -8
-19 -34 -26 -57 -7 -24 -16 -43 -21 -43 -4 0 -17 -9 -28 -20 -12 -12 -25 -18
-30 -15 -5 3 -19 0 -30 -7 -15 -9 -23 -10 -28 -2 -4 6 -25 14 -46 17 -22 4
-42 10 -45 16 -3 5 -12 3 -19 -5 -13 -15 -6 -19 26 -15 25 4 23 -29 -4 -63
-19 -23 -32 -32 -39 -26 -16 13 -46 -51 -34 -72 13 -23 -15 -45 -36 -28 -8 6
-20 8 -26 4 -9 -5 -7 -11 7 -21 18 -13 18 -15 2 -24 -10 -6 -18 -19 -18 -29 0
-11 -7 -20 -15 -20 -8 0 -15 -8 -15 -17 -1 -20 -68 -98 -77 -89 -3 3 3 18 13
33 10 15 24 45 30 65 10 30 9 38 -3 42 -12 5 -12 8 2 23 12 12 15 25 10 50 -5
26 -2 38 11 47 11 9 14 19 10 34 -13 41 -44 17 -48 -37 -1 -18 -6 -35 -10 -37
-4 -3 -6 -17 -4 -32 2 -15 1 -19 -1 -9 -6 23 -27 17 -32 -8 -2 -11 -16 -31
-32 -46 -16 -15 -29 -33 -29 -41 0 -10 2 -10 8 -1 5 7 13 9 21 4 10 -6 5 -11
-18 -16 -17 -4 -31 -13 -31 -21 0 -8 -7 -17 -16 -21 -8 -3 -13 -12 -10 -19 8
-20 -4 -17 -25 7 -10 12 -23 19 -29 17 -6 -2 -3 -12 9 -25 20 -21 20 -21 0
-26 -14 -4 -19 -14 -19 -36 0 -20 -5 -31 -14 -31 -17 0 -32 -76 -22 -115 4
-14 4 -36 0 -50 l-6 -26 -14 27 c-8 14 -14 35 -14 46 0 11 -8 22 -20 25 -15 4
-18 11 -13 35 3 17 1 33 -5 37 -14 8 -27 61 -15 61 5 0 9 10 7 23 -1 12 -3 28
-3 35 -3 36 -71 -28 -71 -67 0 -37 -24 -59 -45 -41 -13 11 -15 8 -15 -15 0
-22 3 -25 14 -16 8 7 16 8 19 4 9 -15 0 -103 -12 -117 -6 -7 -8 -21 -5 -30 4
-10 -1 -25 -10 -35 -11 -12 -15 -28 -11 -42 10 -45 12 -89 4 -95 -5 -3 -18 0
-29 6 -14 8 -19 17 -15 33 4 15 -1 32 -14 49 -15 19 -19 34 -15 60 6 37 -7 57
-24 35 -12 -15 -35 -85 -37 -112 -2 -21 6 -20 -202 -25 -12 0 -25 -5 -28 -10
-3 -6 -24 -10 -45 -10 -38 0 -39 1 -30 25 12 32 10 97 -3 92 -10 -3 -17 -36
-19 -94 -1 -25 -7 -33 -27 -38 -61 -14 -229 -108 -287 -160 -57 -50 -75 -75
-131 -175 -53 -95 -55 -243 -6 -396 27 -82 36 -97 91 -152 65 -65 123 -103
130 -83 6 19 27 12 77 -25 36 -28 49 -34 55 -23 7 10 12 6 20 -13 14 -29 60
-44 90 -28 20 11 50 4 50 -11 0 -5 8 -9 18 -9 10 0 25 -11 32 -25 21 -39 58
-44 86 -12 13 15 29 27 35 27 7 0 23 10 37 22 22 21 24 22 33 5 15 -26 53 -12
135 50 39 29 76 53 82 53 6 0 14 9 17 20 10 32 27 24 20 -10 -4 -16 -2 -30 3
-30 5 0 41 27 80 60 40 33 80 60 90 60 11 0 26 8 35 18 19 21 67 125 67 145 0
8 6 17 14 20 8 3 31 31 50 61 20 31 40 56 45 56 5 0 12 10 16 23 6 19 8 19 12
5 2 -10 -3 -25 -11 -34 -9 -8 -16 -21 -16 -27 0 -7 -3 -23 -6 -37 -6 -24 -5
-24 24 8 31 32 52 41 52 21 0 -6 -9 -13 -20 -16 -11 -3 -20 -9 -20 -12 0 -19
16 -19 47 0 18 12 40 18 48 15 22 -8 74 41 80 77 11 58 12 87 4 81 -5 -3 -9
-1 -9 3 0 12 106 123 118 123 12 0 102 115 102 130 0 6 -6 10 -12 7 -7 -2 -12
-10 -10 -16 3 -16 -23 -24 -54 -17 -26 7 -26 8 -8 24 11 9 36 26 57 37 20 11
37 25 37 33 0 7 8 15 18 19 30 11 102 90 102 112 0 12 6 21 16 21 15 0 44 23
44 34 0 14 -39 4 -55 -14 -10 -11 -27 -22 -39 -26 -31 -9 -56 -34 -56 -56 0
-10 -7 -18 -15 -18 -8 0 -12 -6 -9 -14 6 -15 -46 -72 -75 -81 -24 -7 -81 -62
-74 -69 4 -3 -8 -9 -25 -12 -17 -3 -33 -12 -36 -20 -3 -8 -12 -14 -20 -14 -8
0 -23 -12 -34 -27 -11 -15 -22 -22 -26 -15 -9 15 42 72 65 72 10 0 19 4 19 8
0 5 16 27 35 49 19 22 31 43 27 47 -3 4 1 4 11 0 9 -3 17 -2 18 2 0 5 2 19 3
31 1 12 22 41 45 65 23 24 45 56 48 71 3 15 11 26 17 24 12 -4 46 34 46 52 0
6 -4 11 -10 11 -5 0 -10 -5 -10 -11 0 -7 -11 -9 -27 -6 -26 5 -26 4 -8 -9 18
-13 17 -14 -8 -14 -17 0 -27 -5 -27 -15 0 -17 -63 -85 -93 -100 -23 -11 -41
-73 -26 -91 5 -6 4 -15 -3 -22 -16 -16 -28 -15 -28 3 0 9 -9 15 -21 15 -18 0
-19 -2 -5 -15 13 -13 13 -20 3 -35 -16 -27 -22 -25 -53 15 -22 29 -24 38 -14
50 13 15 8 19 -22 16 -25 -3 -22 6 12 46 17 18 30 43 30 55 0 12 3 18 7 15 9
-10 53 33 53 51 0 12 3 12 15 2 9 -7 17 -11 19 -9 29 38 47 82 37 92 -13 13
-15 47 -2 47 5 0 13 -9 16 -20 8 -25 16 -25 43 0 24 23 30 44 10 37 -7 -2 -12
-10 -11 -16 5 -22 -25 -11 -43 16 -10 16 -19 23 -22 15 -2 -6 -10 -12 -18 -12
-8 0 -14 -5 -14 -11 0 -13 -66 -79 -79 -79 -5 0 -12 -14 -16 -31 -8 -33 -42
-53 -62 -37 -20 16 -16 28 27 70 22 22 40 46 40 52 0 7 17 21 37 32 40 21 55
44 28 44 -9 0 -13 -4 -10 -10 3 -5 1 -10 -4 -10 -6 0 -11 9 -11 20 0 11 -5 20
-11 20 -6 0 -8 7 -5 16 4 10 -1 25 -10 35 -21 24 -11 52 25 66 24 9 32 8 46
-6 16 -15 17 -14 12 8 -6 26 13 101 25 101 5 0 8 10 8 23 0 22 31 57 50 57 6
0 10 11 10 25 0 29 7 31 32 8 17 -15 18 -15 18 5 0 22 26 42 54 42 10 0 6 -10
-15 -32 -29 -32 -39 -68 -18 -68 6 0 26 16 45 36 33 36 44 64 24 64 -5 0 -10
11 -10 25 0 15 -6 25 -14 25 -24 0 -30 22 -11 37 11 7 28 13 39 13 16 0 30 19
60 80 21 44 42 80 47 80 13 0 20 -18 9 -25 -12 -7 -14 -25 -2 -25 13 0 82 69
82 81 0 10 -3 10 -12 1 -7 -7 -20 -12 -31 -12 -14 0 -17 5 -12 20 4 14 1 22
-10 26 -22 9 -65 -12 -65 -31 0 -9 -9 -15 -25 -15 -32 0 -34 -30 -2 -31 21 0
21 -1 2 -9 -30 -13 -32 -12 -38 12 -7 24 26 68 50 68 7 0 13 9 13 19 0 11 5
23 11 26 6 4 8 13 5 20 -3 8 4 17 15 20 20 7 23 36 4 41 -5 2 -29 -19 -53 -45z
m-178 -304 c-8 -21 -23 -22 -31 -1 -7 18 17 38 30 25 4 -4 5 -15 1 -24z m-66
-5 c2 -7 -6 -12 -17 -12 -21 0 -27 11 -14 24 9 9 26 2 31 -12z m22 -31 c0 -12
-20 -25 -27 -18 -7 7 6 27 18 27 5 0 9 -4 9 -9z m-62 -118 c2 -56 -24 -98 -67
-109 -37 -9 -58 -44 -27 -44 21 0 20 -15 -1 -40 -21 -24 -33 -26 -33 -5 0 8 7
15 15 15 8 0 15 5 15 10 0 13 -17 13 -25 0 -4 -6 -11 -8 -16 -5 -5 4 -9 0 -9
-8 0 -8 -9 -17 -20 -20 -11 -3 -20 -12 -20 -20 0 -8 -7 -17 -15 -21 -8 -3 -12
-12 -9 -20 3 -8 -11 -36 -30 -64 -22 -30 -36 -61 -36 -79 0 -41 -25 -62 -40
-34 -9 18 -8 21 7 21 13 0 14 3 5 12 -16 16 -15 38 1 38 6 0 18 12 25 27 16
35 15 43 -3 43 -9 0 -15 9 -15 21 0 11 7 27 15 35 8 9 15 24 15 35 0 10 23 44
50 74 28 30 50 60 50 65 0 6 5 10 12 10 14 0 78 60 78 73 0 4 6 15 14 22 12
12 15 12 20 0 3 -8 10 -15 16 -15 17 0 11 24 -10 43 -11 9 -20 22 -20 29 1 7
13 -2 28 -19 19 -22 29 -45 30 -70z m138 60 c-10 -10 -19 5 -10 18 6 11 8 11
12 0 2 -7 1 -15 -2 -18z m-221 -11 c-3 -3 -11 0 -18 7 -9 10 -8 11 6 5 10 -3
15 -9 12 -12z m152 -7 c-15 -32 -26 -32 -19 0 2 14 10 25 17 25 10 0 11 -5 2
-25z m-371 -101 c-3 -9 -6 -18 -6 -20 0 -2 -7 -4 -15 -4 -18 0 -19 12 -3 28
17 17 31 15 24 -4z m268 -68 c-6 -16 -34 -30 -34 -18 0 5 5 13 12 20 16 16 29
15 22 -2z m-314 -6 c0 -5 -7 -10 -16 -10 -8 0 -12 5 -9 10 3 6 10 10 16 10 5
0 9 -4 9 -10z m-70 -75 c0 -8 -4 -15 -9 -15 -13 0 -22 16 -14 24 11 11 23 6
23 -9z m74 -55 c-31 -60 -44 -70 -44 -36 0 14 5 28 11 31 5 4 14 18 19 31 5
13 16 24 25 24 12 0 10 -10 -11 -50z m-74 1 c0 -23 -16 -36 -25 -21 -9 14 1
40 15 40 5 0 10 -9 10 -19z m257 -33 c-3 -8 -6 -5 -6 6 -1 11 2 17 5 13 3 -3
4 -12 1 -19z m66 -20 c6 -23 -3 -47 -29 -72 -19 -19 -37 -21 -31 -3 2 6 -5 24
-15 40 -11 15 -17 33 -15 40 3 7 6 5 6 -5 1 -10 5 -18 10 -18 21 0 41 13 41
26 0 22 27 16 33 -8z m-206 -30 c-3 -7 -5 -2 -5 12 0 14 2 19 5 13 2 -7 2 -19
0 -25z m-159 -29 c2 -23 2 -23 -13 -5 -18 24 -20 39 -2 34 6 -3 13 -15 15 -29z
m-162 -59 c1 -53 -3 -70 -13 -70 -8 0 -12 -4 -8 -9 6 -11 -13 -26 -22 -18 -3
3 -1 11 3 18 4 8 9 31 10 54 2 36 18 95 27 95 2 0 3 -31 3 -70z m475 2 c-5 -9
-19 -26 -30 -36 -21 -19 -21 -19 -21 7 0 25 21 46 48 47 9 0 10 -5 3 -18z
m-287 -18 c9 -23 39 -18 33 6 -3 13 0 20 9 20 8 0 14 -9 14 -20 0 -11 -4 -20
-10 -20 -5 0 -10 -6 -10 -14 0 -8 -12 -17 -27 -21 -15 -3 -31 -12 -35 -18 -11
-16 -28 10 -28 44 0 44 39 61 54 23z m-133 -57 c-15 -15 -24 -2 -16 24 7 20 8
21 17 5 7 -12 7 -21 -1 -29z m239 23 c0 -15 -41 -53 -48 -45 -4 3 -2 9 4 13 6
4 13 15 17 25 7 18 27 24 27 7z m120 -58 c0 -26 -24 -56 -41 -49 -10 4 -9 6 4
6 10 1 15 6 12 11 -8 13 4 50 16 50 5 0 9 -8 9 -18z m-313 -30 c-1 -21 -9 -46
-19 -55 -9 -9 -19 -22 -21 -29 -4 -10 -7 -10 -15 0 -11 17 27 122 45 122 7 0
11 -15 10 -38z m-131 -7 c1 -14 -2 -25 -6 -25 -11 0 -21 30 -14 41 10 16 19 9
20 -16z m243 -31 c-7 -13 -16 -24 -21 -24 -13 0 -9 27 7 40 8 7 16 20 16 29 1
12 2 12 6 -3 3 -10 -1 -29 -8 -42z m271 26 c0 -5 -5 -10 -11 -10 -5 0 -7 5 -4
10 3 6 8 10 11 10 2 0 4 -4 4 -10z m-200 -20 c0 -21 -26 -38 -38 -25 -4 4 -1
10 6 12 6 3 12 11 12 19 0 8 5 14 10 14 6 0 10 -9 10 -20z m124 -25 c-4 -8 -8
-15 -10 -15 -2 0 -4 7 -4 15 0 8 4 15 10 15 5 0 7 -7 4 -15z m-461 -9 c8 -19
-19 -28 -33 -11 -8 10 -8 14 2 18 21 9 26 8 31 -7z m85 -62 c2 -24 -1 -33 -9
-29 -6 4 -9 16 -6 26 3 11 1 19 -4 19 -5 0 -9 5 -9 10 0 6 6 10 13 10 8 0 14
-14 15 -36z m192 20 c0 -8 -5 -12 -10 -9 -6 4 -8 11 -5 16 9 14 15 11 15 -7z
m110 4 c0 -17 -18 -44 -24 -37 -8 7 5 49 15 49 5 0 9 -6 9 -12z m-340 -8 c0
-5 -4 -10 -10 -10 -5 0 -10 5 -10 10 0 6 5 10 10 10 6 0 10 -4 10 -10z m206
-35 c7 -30 -22 -98 -39 -92 -7 3 -10 11 -8 18 1 8 4 24 5 36 0 11 4 19 9 16 4
-2 7 7 7 21 0 33 18 34 26 1z m239 -19 c-33 -30 -42 -28 -23 6 17 30 31 39 42
28 5 -5 -3 -19 -19 -34z m225 34 c0 -5 -4 -10 -10 -10 -5 0 -10 5 -10 10 0 6
5 10 10 10 6 0 10 -4 10 -10z m-360 -30 c0 -5 -4 -10 -10 -10 -5 0 -10 5 -10
10 0 6 5 10 10 10 6 0 10 -4 10 -10z m-205 -50 c-5 -8 -11 -8 -17 -2 -6 6 -7
16 -3 22 5 8 11 8 17 2 6 -6 7 -16 3 -22z m248 -37 c-7 -2 -13 -12 -13 -20 0
-9 -3 -14 -6 -10 -10 10 4 37 18 36 10 0 10 -2 1 -6z m-99 -48 c3 -8 1 -15 -4
-15 -6 0 -10 7 -10 15 0 8 2 15 4 15 2 0 6 -7 10 -15z m436 8 c-1 -16 -36 -52
-69 -68 -18 -9 -36 -25 -38 -36 -3 -12 -13 -19 -27 -18 -17 1 -17 2 -3 6 9 2
17 13 17 23 0 19 40 50 65 50 9 0 13 5 10 10 -4 6 -1 17 5 25 13 16 40 21 40
8z m-252 -23 c-7 -11 -16 -20 -20 -20 -5 0 -8 -6 -8 -13 0 -7 -9 -18 -20 -25
-33 -20 -25 8 12 45 38 36 54 43 36 13z m-128 -16 c0 -8 -5 -12 -10 -9 -6 4
-8 11 -5 16 9 14 15 11 15 -7z m-18 -29 c2 3 3 -8 0 -23 -2 -16 -13 -34 -24
-41 -15 -10 -18 -10 -13 0 5 8 4 10 -3 5 -7 -4 -12 -16 -12 -27 0 -10 -4 -19
-10 -19 -16 0 -12 22 10 55 11 17 20 38 20 49 0 14 3 16 13 7 8 -6 16 -9 19
-6z m195 -31 c-3 -3 -12 -4 -19 -1 -8 3 -5 6 6 6 11 1 17 -2 13 -5z m-66 -140
c-11 -15 -21 -21 -21 -14 0 15 31 52 38 46 2 -3 -5 -17 -17 -32z m143 20 c5
-12 2 -15 -13 -11 -13 3 -32 -8 -60 -37 -23 -23 -38 -45 -35 -49 4 -4 0 -7
-10 -7 -13 0 -16 5 -11 21 7 23 46 65 56 62 4 -1 15 6 25 17 24 23 40 25 48 4z
m-304 -23 c0 -6 -4 -13 -10 -16 -5 -3 -10 1 -10 9 0 9 5 16 10 16 6 0 10 -4
10 -9z m297 -37 c-3 -3 -12 -4 -19 -1 -8 3 -5 6 6 6 11 1 17 -2 13 -5z m-284
-90 c-8 -21 -23 -17 -23 6 0 13 5 18 14 14 8 -3 12 -12 9 -20z m-120 -199 c-3
-9 -8 -14 -10 -11 -3 3 -2 9 2 15 9 16 15 13 8 -4z"/>
<path d="M5836 7091 c-4 -7 -5 -15 -2 -18 9 -9 19 4 14 18 -4 11 -6 11 -12 0z"/>
<path d="M5650 6920 c0 -5 5 -10 10 -10 6 0 10 5 10 10 0 6 -4 10 -10 10 -5 0
-10 -4 -10 -10z"/>
<path d="M5630 6870 c0 -11 5 -20 10 -20 6 0 10 9 10 20 0 11 -4 20 -10 20 -5
0 -10 -9 -10 -20z"/>
<path d="M5440 6666 c0 -2 7 -6 15 -10 8 -3 15 -1 15 4 0 6 -7 10 -15 10 -8 0
-15 -2 -15 -4z"/>
<path d="M5330 7621 c0 -5 -3 -16 -6 -25 -3 -9 -2 -16 4 -16 13 0 23 38 11 46
-5 3 -9 1 -9 -5z"/>
<path d="M5160 7610 c0 -5 7 -10 15 -10 8 0 15 5 15 10 0 6 -7 10 -15 10 -8 0
-15 -4 -15 -10z"/>
<path d="M6075 7601 c-8 -27 -2 -36 13 -18 6 7 7 18 3 26 -7 10 -10 8 -16 -8z"/>
<path d="M5387 7586 c-4 -10 -5 -21 -2 -24 9 -9 17 6 13 25 -3 17 -4 17 -11
-1z"/>
<path d="M6000 7578 c0 -15 -4 -30 -10 -33 -5 -3 -10 -13 -10 -21 0 -20 20
-17 21 4 0 10 3 12 6 5 2 -7 9 -13 15 -13 6 0 6 6 -2 15 -7 8 -10 21 -7 28 3
8 1 20 -4 28 -6 10 -9 7 -9 -13z"/>
<path d="M6555 7590 c3 -5 8 -10 11 -10 2 0 4 5 4 10 0 6 -5 10 -11 10 -5 0
-7 -4 -4 -10z"/>
<path d="M4981 7564 c0 -11 3 -14 6 -6 3 7 2 16 -1 19 -3 4 -6 -2 -5 -13z"/>
<path d="M6350 7569 c0 -5 5 -7 10 -4 6 3 10 8 10 11 0 2 -4 4 -10 4 -5 0 -10
-5 -10 -11z"/>
<path d="M6520 7561 c0 -12 5 -21 10 -21 6 0 10 6 10 14 0 8 -4 18 -10 21 -5
3 -10 -3 -10 -14z"/>
<path d="M5470 7550 c0 -5 5 -10 11 -10 5 0 7 5 4 10 -3 6 -8 10 -11 10 -2 0
-4 -4 -4 -10z"/>
<path d="M6053 7548 c-4 -7 -13 -22 -19 -33 -5 -11 -18 -32 -28 -47 -17 -26
-17 -28 -1 -28 19 0 54 38 55 58 0 7 7 20 15 28 8 9 15 20 15 25 0 13 -28 11
-37 -3z"/>
<path d="M5060 7532 c0 -7 -6 -12 -14 -12 -17 0 -41 -28 -32 -37 4 -4 11 -1
16 7 8 13 10 12 10 -2 0 -31 18 -19 23 15 2 17 3 34 1 36 -2 2 -4 -1 -4 -7z"/>
<path d="M6341 7521 c-7 -5 -9 -11 -4 -14 5 -3 15 -2 22 2 7 5 9 11 4 14 -5 3
-15 2 -22 -2z"/>
<path d="M6390 7459 c-35 -32 -70 -59 -77 -59 -7 0 -13 -7 -13 -15 0 -9 -7
-30 -16 -46 -18 -36 -11 -52 11 -23 8 10 15 15 15 9 0 -5 10 6 21 25 12 19 25
37 29 40 4 3 27 22 51 42 24 20 58 48 74 62 23 20 26 25 13 26 -10 0 -18 -5
-18 -11 0 -8 -4 -8 -13 -1 -9 8 -29 -4 -77 -49z"/>
<path d="M5958 7503 c-3 -4 -8 -21 -12 -38 l-8 -30 23 28 c14 19 18 32 11 39
-5 5 -12 6 -14 1z"/>
<path d="M7055 7490 c4 -6 11 -8 16 -5 14 9 11 15 -7 15 -8 0 -12 -5 -9 -10z"/>
<path d="M5007 7454 c-4 -4 1 -12 10 -19 13 -10 14 -17 5 -44 -9 -24 -9 -32 0
-29 6 2 17 24 24 47 8 29 9 40 2 33 -8 -8 -14 -7 -22 4 -7 8 -15 12 -19 8z"/>
<path d="M5960 7395 c0 -8 7 -15 15 -15 8 0 15 7 15 15 0 8 -7 15 -15 15 -8 0
-15 -7 -15 -15z"/>
<path d="M6501 7391 c-8 -5 -9 -11 -3 -15 5 -3 15 1 22 9 14 16 3 20 -19 6z"/>
<path d="M5331 7370 c0 -14 -3 -36 -7 -49 -5 -18 -4 -23 7 -19 17 6 24 67 10
81 -8 8 -11 4 -10 -13z"/>
<path d="M5900 7375 c-11 -13 -8 -15 15 -15 23 0 26 2 15 15 -7 8 -14 15 -15
15 -1 0 -8 -7 -15 -15z"/>
<path d="M5386 7351 c-14 -26 -14 -30 -1 -41 22 -18 19 -50 -4 -50 -20 0 -31
-18 -31 -54 0 -12 -5 -27 -11 -33 -16 -16 -4 -44 16 -37 24 10 18 -24 -9 -49
-14 -12 -32 -46 -40 -75 l-15 -52 24 6 c18 4 23 2 22 -12 -1 -10 6 -20 15 -22
12 -2 19 6 24 32 3 20 10 39 15 42 16 9 10 56 -8 70 -17 12 -17 13 3 14 12 0
24 7 28 15 3 8 12 15 21 15 20 0 20 19 0 26 -13 5 -15 20 -11 72 2 39 -1 73
-7 84 -10 16 -9 22 6 32 10 8 15 20 11 30 -10 25 -32 19 -48 -13z"/>
<path d="M6256 7361 c-4 -7 -5 -15 -2 -18 9 -9 19 4 14 18 -4 11 -6 11 -12 0z"/>
<path d="M5507 7330 c-14 -27 -14 -31 0 -39 11 -6 12 -10 4 -15 -14 -9 -15
-43 -1 -51 6 -3 13 2 16 12 3 10 10 26 15 36 7 12 4 25 -8 43 -14 22 -14 27
-2 35 9 5 10 9 2 9 -6 0 -18 -13 -26 -30z"/>
<path d="M5570 7351 c0 -5 7 -14 15 -21 16 -14 18 -10 9 14 -6 17 -24 22 -24
7z"/>
<path d="M5715 7349 c-4 -6 -5 -12 -2 -15 2 -3 7 2 10 11 7 17 1 20 -8 4z"/>
<path d="M6445 7340 c-3 -5 -1 -10 4 -10 6 0 11 5 11 10 0 6 -2 10 -4 10 -3 0
-8 -4 -11 -10z"/>
<path d="M4672 7305 c0 -16 2 -22 5 -12 2 9 2 23 0 30 -3 6 -5 -1 -5 -18z"/>
<path d="M6233 7323 c-15 -5 -17 -23 -4 -23 5 0 11 7 15 15 3 8 4 15 3 14 -1
0 -8 -3 -14 -6z"/>
<path d="M5280 7310 c0 -5 4 -10 9 -10 6 0 13 5 16 10 3 6 -1 10 -9 10 -9 0
-16 -4 -16 -10z"/>
<path d="M6410 7310 c0 -5 5 -10 10 -10 6 0 10 5 10 10 0 6 -4 10 -10 10 -5 0
-10 -4 -10 -10z"/>
<path d="M5713 7293 c-18 -7 -16 -23 2 -23 8 0 15 7 15 15 0 8 -1 15 -2 14 -2
0 -9 -3 -15 -6z"/>
<path d="M6380 7290 c-13 -8 -12 -10 3 -10 9 0 17 5 17 10 0 12 -1 12 -20 0z"/>
<path d="M7040 7280 c0 -5 12 -10 26 -10 14 0 23 4 19 10 -3 6 -15 10 -26 10
-10 0 -19 -4 -19 -10z"/>
<path d="M6166 7264 c-9 -22 -8 -24 8 -18 20 8 29 34 12 34 -8 0 -17 -7 -20
-16z"/>
<path d="M6252 7259 c-7 -11 -11 -24 -8 -27 10 -9 28 15 24 32 -2 14 -5 13
-16 -5z"/>
<path d="M6312 7225 c-33 -37 -38 -45 -24 -45 10 0 82 63 82 73 0 18 -28 4
-58 -28z"/>
<path d="M4653 7243 c-18 -7 -16 -23 2 -23 8 0 15 7 15 15 0 8 -1 15 -2 14 -2
0 -9 -3 -15 -6z"/>
<path d="M5271 7219 l-11 -33 21 23 c14 15 18 26 11 33 -6 6 -13 -2 -21 -23z"/>
<path d="M5672 7216 c-11 -25 -7 -36 15 -36 8 0 13 12 13 30 0 36 -13 39 -28
6z"/>
<path d="M4770 7215 c0 -8 5 -15 10 -15 6 0 10 7 10 15 0 8 -4 15 -10 15 -5 0
-10 -7 -10 -15z"/>
<path d="M5467 7215 c-3 -11 -12 -28 -19 -37 -20 -27 0 -34 26 -9 14 13 29 20
35 16 6 -3 11 -1 11 4 0 6 -9 11 -19 11 -11 0 -21 8 -23 18 -3 15 -5 15 -11
-3z"/>
<path d="M6965 7209 c-4 -6 -5 -13 -2 -16 7 -7 27 6 27 18 0 12 -17 12 -25 -2z"/>
<path d="M5188 7203 c7 -3 16 -2 19 1 4 3 -2 6 -13 5 -11 0 -14 -3 -6 -6z"/>
<path d="M6510 7194 c0 -8 5 -12 10 -9 6 3 10 10 10 16 0 5 -4 9 -10 9 -5 0
-10 -7 -10 -16z"/>
<path d="M5084 7193 c-24 -4 -37 -43 -23 -65 6 -9 9 -6 9 10 0 15 7 26 19 29
18 5 40 35 23 32 -4 -1 -17 -4 -28 -6z"/>
<path d="M5170 7170 c0 -13 -10 -24 -25 -30 -16 -6 -23 -14 -19 -25 9 -23 17
-18 42 25 25 44 26 50 12 50 -5 0 -10 -9 -10 -20z"/>
<path d="M6745 7180 c-3 -5 -2 -10 4 -10 5 0 13 5 16 10 3 6 2 10 -4 10 -5 0
-13 -4 -16 -10z"/>
<path d="M4895 7170 c-3 -5 -3 -15 1 -21 3 -6 1 -15 -5 -19 -15 -9 -20 -103
-6 -110 6 -3 11 13 13 35 2 22 10 48 19 57 10 11 13 26 9 43 -7 26 -20 33 -31
15z"/>
<path d="M6260 7155 c0 -8 7 -15 15 -15 9 0 12 6 9 15 -4 8 -10 15 -15 15 -5
0 -9 -7 -9 -15z"/>
<path d="M6360 7113 c0 -5 -20 -29 -45 -55 -24 -26 -40 -50 -34 -54 8 -5 119
99 119 112 0 7 -40 4 -40 -3z"/>
<path d="M5060 7058 c-8 -23 -20 -53 -28 -66 -18 -28 -2 -53 30 -44 15 4 19 2
13 -7 -4 -7 -2 -24 6 -37 9 -18 10 -27 2 -35 -9 -9 -8 -17 0 -30 9 -15 7 -22
-12 -40 -18 -17 -20 -23 -10 -30 15 -9 42 9 33 22 -3 5 -1 9 5 9 16 0 25 71
12 91 -15 24 -14 82 1 97 9 9 9 15 0 24 -7 7 -12 21 -12 33 0 12 -6 29 -13 39
-12 16 -14 14 -27 -26z"/>
<path d="M6185 7062 c-11 -2 -28 -13 -38 -23 -10 -10 -22 -19 -28 -19 -5 0 -7
-11 -3 -24 4 -18 -2 -32 -28 -59 -61 -64 -88 -99 -88 -113 0 -7 -8 -15 -17
-17 -13 -3 -14 -5 -3 -6 23 -1 140 115 140 139 0 11 7 20 16 20 11 0 13 6 9
19 -8 25 14 61 37 61 10 0 18 -4 18 -10 0 -5 7 -10 15 -10 8 0 15 5 15 10 0 6
-4 10 -9 10 -5 0 -11 6 -13 13 -2 7 -12 11 -23 9z"/>
<path d="M5435 7047 c-4 -10 -5 -21 -1 -24 10 -10 18 4 13 24 -4 17 -4 17 -12
0z"/>
<path d="M4761 7024 c0 -11 3 -14 6 -6 3 7 2 16 -1 19 -3 4 -6 -2 -5 -13z"/>
<path d="M5960 7030 c0 -5 4 -10 9 -10 6 0 13 5 16 10 3 6 -1 10 -9 10 -9 0
-16 -4 -16 -10z"/>
<path d="M4956 7004 c-9 -23 -2 -28 13 -10 7 8 8 17 3 20 -6 3 -13 -1 -16 -10z"/>
<path d="M6020 6995 c-19 -20 -20 -25 -7 -25 9 0 21 9 27 21 17 31 7 33 -20 4z"/>
<path d="M4896 6949 c-6 -34 0 -53 15 -44 11 8 12 75 0 75 -5 0 -11 -14 -15
-31z"/>
<path d="M6270 6965 c-14 -16 -3 -20 19 -6 8 5 9 11 3 15 -5 3 -15 -1 -22 -9z"/>
<path d="M6165 6960 c3 -5 10 -10 16 -10 5 0 9 5 9 10 0 6 -7 10 -16 10 -8 0
-12 -4 -9 -10z"/>
<path d="M4829 6955 c-1 -5 -3 -39 -5 -74 -2 -35 -9 -70 -15 -78 -16 -19 -2
-30 15 -12 16 16 27 141 15 160 -5 8 -9 10 -10 4z"/>
<path d="M6020 6949 c0 -5 5 -7 10 -4 6 3 10 8 10 11 0 2 -4 4 -10 4 -5 0 -10
-5 -10 -11z"/>
<path d="M920 6920 c14 -10 21 -22 17 -26 -9 -9 68 -44 98 -44 28 0 85 20 85
29 0 13 -70 41 -105 41 -18 0 -37 5 -40 10 -3 6 -23 10 -43 10 l-37 0 25 -20z
m140 -45 c0 -12 -19 -12 -23 0 -4 9 -1 12 9 8 7 -3 14 -7 14 -8z"/>
<path d="M1305 6930 c3 -5 8 -10 11 -10 2 0 4 5 4 10 0 6 -5 10 -11 10 -5 0
-7 -4 -4 -10z"/>
<path d="M6230 6930 c0 -5 5 -10 10 -10 6 0 10 5 10 10 0 6 -4 10 -10 10 -5 0
-10 -4 -10 -10z"/>
<path d="M5920 6915 c0 -16 16 -20 24 -6 3 5 -1 11 -9 15 -9 3 -15 0 -15 -9z"/>
<path d="M5030 6910 c0 -5 5 -10 10 -10 6 0 10 5 10 10 0 6 -4 10 -10 10 -5 0
-10 -4 -10 -10z"/>
<path d="M6203 6913 c-7 -3 -13 -14 -13 -25 0 -15 -5 -19 -20 -15 -15 4 -20 0
-20 -14 0 -21 12 -17 53 15 20 16 20 46 0 39z"/>
<path d="M5862 6898 c3 -7 13 -15 23 -17 17 -3 17 -2 3 13 -20 19 -31 21 -26
4z"/>
<path d="M756 6891 c-3 -5 1 -14 9 -21 21 -17 19 -28 -5 -32 -32 -5 -24 -22
12 -29 21 -4 25 -7 11 -8 -12 0 -25 -6 -29 -12 -4 -7 -23 -9 -50 -5 -24 3 -44
3 -44 1 0 -8 24 -49 32 -55 3 -3 -9 -16 -27 -30 -26 -19 -33 -30 -28 -47 4
-17 1 -23 -11 -23 -13 0 -15 -8 -9 -45 6 -45 2 -50 -34 -46 -20 3 -26 -20 -9
-32 17 -13 35 -90 20 -85 -5 1 -19 -1 -32 -6 -18 -6 -21 -13 -18 -42 3 -26 -1
-41 -14 -54 -14 -14 -18 -28 -14 -50 5 -21 3 -30 -6 -30 -9 0 -8 -6 4 -19 16
-18 17 -22 2 -42 -10 -15 -12 -28 -6 -39 6 -12 5 -23 -5 -36 -19 -25 -19 -34
3 -34 13 -1 11 -5 -10 -21 -22 -16 -27 -26 -22 -45 4 -14 1 -31 -6 -39 -11
-13 -10 -21 1 -41 10 -20 10 -29 1 -44 -10 -16 -8 -22 10 -34 21 -15 21 -16 4
-35 -12 -13 -14 -21 -6 -26 8 -5 6 -14 -5 -31 -9 -14 -13 -33 -10 -43 3 -12 0
-21 -11 -25 -14 -5 -14 -9 -3 -22 11 -14 9 -19 -11 -34 l-23 -17 21 -30 c19
-27 20 -31 5 -46 -12 -12 -13 -19 -5 -29 6 -8 7 -19 2 -27 -4 -8 -6 -29 -3
-47 3 -18 2 -41 -2 -51 -17 -38 -16 -65 2 -78 10 -7 15 -17 11 -21 -4 -4 0
-12 9 -19 15 -11 14 -14 -10 -29 -21 -14 -26 -25 -24 -57 1 -21 5 -39 10 -39
5 0 7 -12 4 -26 -3 -16 0 -28 9 -31 21 -8 17 -40 -8 -57 -20 -14 -20 -17 -6
-33 25 -29 26 -46 6 -72 -19 -25 -19 -25 8 -46 26 -21 27 -23 9 -33 -14 -7
-16 -13 -8 -24 16 -20 26 -98 12 -98 -7 0 -9 -9 -5 -25 4 -14 2 -25 -4 -25
-22 0 -8 -30 21 -46 31 -15 31 -17 26 -70 -4 -40 -2 -58 9 -69 9 -8 12 -15 8
-15 -4 0 1 -9 11 -20 17 -19 17 -21 1 -39 -12 -13 -14 -21 -6 -26 7 -4 9 -18
5 -32 -4 -18 0 -29 16 -42 18 -15 20 -21 10 -39 -7 -12 -10 -26 -7 -31 3 -5
-1 -14 -9 -21 -22 -18 -19 -27 16 -39 24 -8 29 -14 21 -23 -12 -16 -6 -108 8
-122 5 -5 10 -21 10 -34 0 -14 11 -33 26 -44 18 -15 22 -24 15 -31 -19 -19
-13 -75 9 -87 11 -6 20 -17 20 -25 0 -7 6 -15 13 -18 6 -2 -4 -11 -23 -19
l-35 -15 28 -6 c31 -8 35 -24 10 -42 -24 -18 -7 -35 38 -35 45 0 55 -24 16
-39 -13 -5 -28 -16 -35 -24 -10 -12 -8 -15 17 -20 33 -7 71 -65 50 -78 -7 -4
-9 -19 -5 -40 9 -48 9 -52 1 -71 -5 -12 1 -18 23 -23 28 -6 54 -35 32 -35 -6
0 -10 -5 -10 -11 0 -6 14 -9 33 -7 30 3 32 1 35 -34 2 -26 8 -38 18 -38 9 0
24 -5 35 -11 19 -10 19 -12 5 -28 -18 -20 -12 -31 16 -31 21 0 24 -20 6 -39
-11 -10 -8 -16 11 -30 17 -13 22 -24 17 -39 -6 -16 -2 -21 16 -24 17 -2 22 -9
21 -26 -2 -16 2 -22 17 -22 22 0 35 -16 20 -25 -17 -10 -2 -24 20 -18 24 6 26
-13 5 -44 -18 -25 -6 -38 26 -28 18 6 20 4 15 -13 -5 -13 1 -27 19 -43 28 -27
31 -42 11 -59 -27 -21 -8 -39 40 -36 40 2 44 0 44 -20 0 -13 5 -26 10 -29 7
-4 5 -14 -5 -28 -26 -37 -19 -52 27 -54 51 -3 64 -14 49 -42 -10 -19 -9 -22
14 -31 15 -6 33 -10 41 -10 17 0 17 -5 4 -31 -9 -16 -7 -19 15 -19 21 0 25 -5
25 -29 0 -29 14 -41 51 -41 20 0 26 -24 9 -35 -5 -3 -10 -20 -10 -37 0 -29 2
-30 30 -24 26 5 32 2 40 -18 5 -14 19 -26 32 -28 15 -2 24 -11 26 -25 3 -17
10 -23 28 -23 13 0 24 -6 24 -13 0 -23 25 -67 38 -67 20 0 72 -52 72 -72 0
-11 7 -18 20 -18 11 0 20 -7 20 -16 0 -8 14 -20 30 -25 24 -9 30 -17 30 -40 0
-26 4 -29 30 -29 24 0 30 -4 30 -21 0 -11 12 -33 28 -48 23 -23 31 -26 50 -18
31 14 35 6 33 -57 -1 -48 1 -56 25 -74 l27 -19 -22 -19 c-12 -11 -30 -34 -39
-53 -9 -19 -18 -29 -20 -23 -6 19 -30 14 -37 -8 -3 -11 -10 -20 -15 -20 -13 0
-100 -86 -100 -98 0 -7 -13 -12 -29 -12 -17 0 -33 -5 -36 -10 -3 -6 -1 -10 5
-10 6 0 8 -5 5 -10 -3 -5 -15 -10 -27 -10 -11 0 -22 -8 -25 -20 -3 -11 -13
-20 -22 -20 -9 0 -21 -10 -26 -22 -6 -13 -27 -32 -47 -43 -42 -22 -45 -29 -23
-52 18 -18 4 -43 -24 -43 -9 0 -21 -4 -27 -8 -5 -5 -29 -15 -53 -22 -42 -14
-66 -40 -43 -48 22 -7 12 -22 -23 -36 -27 -12 -35 -21 -35 -40 0 -14 -11 -37
-25 -52 -20 -21 -23 -30 -13 -37 9 -6 7 -7 -8 -4 -30 6 -56 -11 -49 -33 4 -12
-1 -23 -15 -33 -12 -8 -18 -21 -15 -29 4 -10 -7 -20 -35 -33 -35 -16 -40 -22
-40 -52 0 -26 -6 -36 -25 -45 -14 -6 -25 -17 -25 -25 0 -7 -13 -16 -30 -19
-26 -6 -28 -9 -23 -35 4 -22 2 -29 -10 -29 -10 0 -17 -11 -19 -32 -2 -21 -8
-33 -18 -33 -8 0 -15 -7 -15 -16 0 -9 -6 -23 -12 -31 -7 -8 -9 -25 -6 -38 4
-15 2 -21 -4 -17 -16 10 -73 -22 -67 -38 9 -24 32 -25 38 -2 4 17 8 19 17 10
9 -9 9 -16 -1 -28 -22 -27 -21 -95 1 -119 13 -13 18 -29 14 -43 -6 -27 3 -30
21 -5 12 16 13 16 14 0 0 -9 18 -29 40 -45 47 -33 50 -43 13 -43 -54 0 -59
-14 -22 -59 35 -43 56 -48 111 -26 11 4 18 3 18 -4 0 -6 -7 -11 -16 -11 -19 0
-64 -40 -64 -57 0 -10 449 -13 2210 -13 2181 0 2210 0 2210 19 0 31 19 35 26
6 l6 -25 779 0 c449 1 779 5 779 10 0 5 -4 12 -10 15 -5 3 -10 12 -10 20 0 10
9 12 35 8 29 -5 35 -2 35 12 0 9 -13 22 -30 28 -41 16 -47 37 -10 37 16 0 32
-4 35 -10 7 -12 45 -14 45 -2 0 11 -50 62 -61 62 -6 0 -7 5 -3 11 3 6 15 9 25
6 23 -6 34 24 20 52 -15 27 -14 31 8 31 10 0 21 -6 24 -14 3 -7 17 -16 31 -18
35 -7 42 19 15 49 -18 18 -19 23 -7 23 9 0 18 9 21 20 3 13 10 18 21 14 14 -6
14 -3 1 22 -21 41 -19 64 6 64 18 0 21 5 17 30 -3 17 -1 33 4 36 15 9 8 24
-11 24 -10 0 -21 9 -24 20 -4 17 0 20 24 20 16 0 29 5 29 10 0 6 -7 10 -15 10
-21 0 -19 18 3 23 14 3 12 6 -9 15 -22 9 -28 19 -31 51 -3 37 5 56 14 32 2 -5
12 -11 23 -13 14 -2 20 2 18 16 -1 15 4 17 29 12 26 -5 29 -3 23 12 -17 39
-11 56 20 56 28 1 30 3 30 41 0 22 -4 43 -10 47 -6 5 -3 20 9 43 18 33 18 36
3 53 -23 25 -21 35 6 47 12 6 21 17 19 24 -2 8 -4 47 -6 87 -2 53 1 77 10 85
11 9 11 16 -1 40 -17 31 -20 69 -6 69 5 0 15 24 21 53 17 71 28 89 36 60 7
-25 15 -28 31 -12 8 8 13 8 17 0 12 -19 26 -12 26 12 0 26 23 94 36 106 24 23
107 62 121 56 20 -7 33 11 33 47 0 30 16 44 43 40 9 -2 17 2 17 8 0 7 7 10 15
6 22 -8 45 22 45 60 0 33 20 48 35 24 3 -5 13 -10 21 -10 15 0 28 25 38 73 4
15 12 27 20 27 7 0 21 9 32 21 l19 21 17 -22 c15 -19 19 -20 24 -6 3 8 2 21
-2 27 -5 9 -2 10 10 6 16 -6 23 4 40 57 5 13 10 15 19 8 14 -12 40 -1 35 14
-4 15 32 74 46 74 13 0 76 81 76 99 0 6 14 20 30 33 17 12 30 28 30 35 0 8 8
13 17 11 12 -2 21 8 31 37 7 22 20 43 28 48 9 5 12 16 8 31 -4 18 -1 25 15 29
26 6 31 67 6 67 -22 0 -19 27 4 40 27 14 31 13 31 -10 0 -11 4 -20 9 -20 14 0
-4 65 -28 98 -11 17 -21 37 -21 46 0 16 -11 21 -22 11 -3 -3 1 -25 9 -48 13
-38 13 -42 -3 -54 -16 -11 -20 -9 -37 17 -14 22 -26 30 -41 28 -11 -2 -21 -8
-21 -15 0 -6 -3 -15 -7 -19 -5 -4 -8 -2 -8 4 0 19 -18 14 -25 -7 -5 -18 -8
-18 -34 -5 -16 8 -32 21 -35 29 -8 22 -21 18 -34 -10 -8 -17 -20 -25 -37 -25
-28 0 -31 -10 -13 -40 17 -27 4 -35 -25 -16 l-24 16 4 -45 c5 -50 -12 -62 -22
-16 -3 16 -13 35 -21 42 -8 6 -14 18 -14 25 0 8 -4 14 -10 14 -5 0 -10 7 -10
15 0 8 -16 32 -35 54 -19 21 -35 42 -35 46 0 11 -42 46 -48 40 -7 -6 18 -54
41 -79 19 -22 23 -61 6 -71 -6 -4 -7 -19 -4 -36 8 -37 1 -37 -35 2 -18 20 -34
30 -44 26 -11 -5 -16 -1 -16 12 0 11 -22 42 -50 70 -27 28 -50 56 -50 61 0 6
-4 10 -10 10 -5 0 -10 -12 -10 -26 0 -33 -19 -27 -40 12 -18 32 -60 46 -60 20
0 -9 -7 -16 -15 -16 -8 0 -15 -4 -15 -9 0 -5 9 -7 20 -4 23 6 28 -15 5 -23
-21 -8 -19 -27 5 -44 21 -15 27 -45 11 -54 -11 -7 -106 104 -105 121 1 7 -2
11 -6 8 -5 -3 -10 1 -13 7 -10 28 -14 0 -8 -49 6 -41 4 -53 -6 -53 -7 0 -13 9
-13 20 0 10 -10 24 -21 31 -20 10 -21 9 -17 -20 4 -25 1 -31 -13 -31 -10 0
-25 7 -33 16 -9 8 -21 12 -27 8 -8 -4 -9 0 -4 15 5 17 -2 29 -31 56 -21 19
-41 35 -45 35 -4 0 -14 3 -22 6 -11 4 -13 -1 -9 -21 2 -15 10 -29 17 -31 7 -3
10 -14 8 -25 -4 -12 1 -25 12 -32 11 -9 16 -23 13 -42 l-3 -30 -23 43 c-18 34
-28 43 -43 39 -14 -4 -19 0 -19 15 0 11 -8 22 -20 25 -11 3 -20 10 -20 15 0 6
-11 7 -25 4 -23 -6 -25 -4 -19 18 5 21 1 25 -26 31 -20 4 -34 15 -37 26 -3 10
-11 19 -18 19 -6 0 -20 9 -30 20 -10 11 -25 20 -33 20 -13 0 -13 -3 1 -18 10
-10 17 -24 17 -32 0 -10 3 -10 15 0 13 10 15 9 15 -11 0 -13 3 -35 7 -48 4
-17 3 -22 -5 -17 -17 11 -14 -5 7 -41 17 -27 18 -33 5 -43 -11 -10 -14 -9 -14
3 0 18 -34 83 -56 108 -8 8 -14 20 -14 26 0 11 -22 23 -42 23 -6 0 -5 -6 2
-15 9 -11 10 -19 3 -26 -7 -7 -15 -5 -24 8 -34 46 -38 40 -40 -55 -1 -53 -12
-63 -33 -29 -8 13 -8 20 3 26 8 5 9 11 3 15 -6 3 -14 1 -17 -5 -4 -5 -14 -8
-24 -4 -12 5 -13 3 -4 -6 6 -6 9 -17 7 -24 -5 -12 -74 46 -74 62 0 9 -36 43
-45 43 -10 0 -5 -36 7 -48 9 -9 9 -15 1 -23 -8 -8 -16 -4 -29 16 -17 26 -18
26 -32 9 -9 -12 -13 -14 -10 -4 3 8 -6 23 -19 34 -14 10 -22 25 -19 33 3 8 -5
24 -19 37 -14 13 -25 26 -25 30 0 4 -13 20 -29 36 -17 18 -28 38 -26 52 1 13
0 15 -2 6 -7 -27 -26 -21 -45 12 -9 17 -23 30 -30 30 -8 0 -20 21 -27 46 -15
50 -40 81 -84 104 -16 8 -36 26 -44 41 -9 15 -25 30 -35 32 -21 6 -24 27 -4
27 18 0 25 20 19 53 -5 27 -5 28 36 21 39 -6 43 -4 40 22 -1 16 53 44 85 44
20 0 36 3 36 8 0 8 70 37 113 46 15 4 27 13 27 22 0 28 42 53 89 54 39 0 42 2
30 16 -11 14 -11 18 1 28 19 14 23 51 10 77 -8 15 -7 19 5 19 8 0 15 5 15 11
0 6 -7 8 -16 5 -10 -4 -25 3 -41 20 -18 20 -27 23 -37 15 -10 -8 -25 -6 -59 9
-25 11 -49 25 -52 31 -4 5 -14 9 -23 8 -45 -4 -73 3 -100 26 -17 14 -40 25
-53 25 -19 0 -21 2 -9 10 12 7 8 11 -17 16 -18 3 -40 15 -49 25 -9 11 -25 19
-35 19 -10 0 -21 4 -24 10 -3 5 -13 10 -21 10 -9 0 -24 10 -34 22 -12 15 -30
23 -54 24 -20 0 -45 9 -56 19 -10 9 -25 15 -33 12 -7 -3 -19 4 -26 14 -6 11
-18 18 -25 17 -16 -4 -67 48 -57 58 3 4 -2 4 -11 1 -10 -4 -33 3 -53 14 -28
17 -38 19 -50 9 -11 -9 -21 -9 -45 1 -16 8 -30 17 -30 21 0 5 -11 8 -24 8 -12
0 -35 11 -50 25 -28 26 -38 30 -50 18 -3 -4 5 -17 20 -29 14 -13 24 -28 22
-34 -2 -6 -12 -2 -25 10 -12 11 -27 20 -33 20 -6 0 -8 4 -5 10 3 6 -1 7 -9 4
-11 -4 -16 0 -16 10 0 9 -8 16 -17 17 -56 2 -113 19 -210 61 -24 10 -58 18
-77 18 -19 0 -38 5 -41 10 -3 6 -15 10 -25 10 -25 0 -36 20 -19 31 9 7 5 7
-13 3 -18 -4 -28 -2 -28 6 0 6 -5 8 -11 4 -7 -4 -8 -9 -1 -13 14 -9 19 -35 7
-40 -6 -2 -18 13 -28 33 -15 33 -37 49 -37 28 0 -5 -14 -9 -31 -9 -24 0 -36 9
-62 44 l-31 44 -14 -48 c-20 -69 -32 -81 -49 -49 -15 29 -17 30 -44 15 -15 -8
-18 -14 -9 -24 6 -7 8 -30 6 -51 -20 -154 -20 -152 5 -173 20 -16 22 -21 10
-35 -10 -11 -14 -43 -14 -98 0 -63 -4 -89 -18 -112 -11 -17 -19 -39 -19 -50 0
-53 -96 -140 -126 -115 -12 9 -19 7 -37 -9 -13 -12 -37 -25 -55 -28 -18 -4
-35 -11 -38 -15 -3 -5 -14 -9 -24 -9 -10 0 -26 -7 -35 -16 -10 -11 -24 -14
-41 -10 -19 5 -30 0 -49 -20 l-25 -27 0 27 c0 14 -3 26 -6 26 -12 0 -49 -24
-57 -36 -4 -8 -18 -13 -30 -13 -12 1 -30 -2 -39 -6 -13 -5 -18 -3 -18 9 0 21
-26 20 -39 -1 -5 -10 -20 -18 -33 -18 -13 0 -23 -6 -23 -14 0 -22 -72 -56 -89
-42 -7 6 -15 9 -17 7 -2 -2 -25 -6 -51 -9 -42 -6 -46 -5 -41 11 4 9 14 22 22
29 9 7 12 12 6 12 -18 0 -57 -38 -50 -49 3 -5 -1 -10 -9 -10 -8 0 -22 -7 -31
-16 -9 -9 -19 -14 -22 -11 -6 7 0 23 23 55 17 22 17 23 -12 12 -16 -6 -32 -17
-36 -23 -6 -9 -11 -8 -18 3 -6 10 -10 11 -10 3 0 -7 -7 -13 -15 -13 -8 0 -15
3 -15 6 0 3 7 12 15 20 8 9 15 20 15 25 0 14 -26 11 -39 -5 -12 -14 -51 -11
-51 4 0 11 108 110 120 110 7 0 14 -9 17 -20 4 -16 8 -18 19 -9 11 9 14 8 14
-4 0 -9 -10 -17 -22 -19 -25 -3 -38 -38 -15 -38 19 0 58 35 49 45 -4 4 3 4 15
1 12 -4 24 -2 28 4 4 7 0 10 -10 8 -10 -2 -22 5 -28 14 -9 13 -6 21 14 37 29
24 39 26 39 6 0 -18 12 -19 28 -3 10 10 8 16 -10 30 -22 16 -22 17 -3 24 11 4
26 14 33 21 7 7 21 13 30 13 12 0 10 -4 -8 -17 l-24 -17 24 -6 c30 -7 37 -32
14 -54 -29 -30 -5 -30 26 -1 20 19 27 32 20 39 -5 5 -10 15 -10 20 0 6 5 5 12
-2 19 -19 28 -14 28 13 0 16 4 23 13 19 8 -3 20 3 28 12 13 16 12 17 -15 10
l-29 -7 28 33 c15 18 33 36 41 41 7 4 11 14 7 23 -3 8 3 24 12 34 29 32 8 36
-24 6 -17 -17 -34 -25 -41 -21 -9 5 -10 1 -5 -14 4 -15 2 -21 -8 -21 -9 0 -18
-6 -21 -12 -3 -7 -3 -3 -1 9 3 12 1 24 -5 28 -6 4 -8 16 -4 27 4 12 1 24 -7
30 -10 7 -8 8 7 3 19 -5 21 -1 20 40 -1 36 -5 45 -18 45 -10 0 -23 -9 -30 -20
-17 -26 -22 -25 -36 5 -6 14 -16 25 -22 25 -14 0 -40 -25 -40 -38 0 -11 -45
-32 -69 -32 -29 0 -41 23 -34 63 4 30 2 37 -10 37 -9 0 -20 7 -24 15 -11 20
-62 34 -88 25 -11 -4 -28 -2 -37 4 -13 8 -21 7 -30 -2 -6 -6 -22 -12 -35 -12
-16 0 -23 -6 -23 -20 0 -18 -1 -18 -29 -2 -16 9 -27 22 -24 29 3 7 0 13 -6 13
-6 0 -11 -4 -11 -10 0 -5 -7 -10 -15 -10 -17 0 -20 16 -5 25 16 10 11 33 -9
40 -19 6 -52 -5 -83 -27 -14 -10 -21 -9 -36 6 -13 11 -22 14 -27 7 -9 -15 -35
-14 -35 1 0 6 10 22 22 35 39 42 9 37 -49 -9 -73 -56 -81 -61 -93 -53 -8 5 -7
11 1 21 6 7 15 12 19 9 5 -3 3 6 -3 19 -7 13 -15 22 -19 19 -5 -2 -6 -8 -3
-13 10 -15 -15 -22 -32 -9 -14 12 -15 10 -9 -16 5 -25 2 -32 -18 -41 -23 -11
-24 -10 -15 13 5 13 6 42 3 63 l-6 39 -37 -17 c-36 -17 -57 -35 -77 -68 -9
-16 -14 -13 -50 25 -36 39 -42 41 -67 32 -29 -11 -38 2 -11 17 11 6 13 12 6
16 -14 8 -52 -14 -52 -31 0 -6 6 -14 13 -16 10 -4 10 -6 0 -6 -7 -1 -13 -8
-13 -16 0 -18 -1 -18 -36 -5 -34 13 -64 4 -64 -21 0 -10 -6 -19 -12 -20 -7 -1
-20 -2 -28 -3 -8 -2 -23 -3 -33 -4 -10 -1 -15 -6 -12 -12 13 -20 -14 -9 -29
12 -21 30 -20 37 4 31 23 -6 27 9 6 26 -9 8 -16 8 -20 2 -4 -6 -14 -4 -26 6
-10 9 -17 20 -14 25 3 5 -2 20 -11 35 -9 14 -13 29 -8 33 7 8 138 19 263 22
25 1 48 6 52 12 4 6 9 4 13 -6 6 -15 10 -14 41 4 32 19 36 19 53 4 15 -13 20
-14 29 -3 6 7 7 18 2 26 -4 8 -6 19 -4 25 8 20 -57 18 -79 -1 -20 -18 -20 -17
-13 10 5 19 3 27 -7 27 -8 0 -28 7 -46 16 -25 12 -64 16 -157 17 -69 0 -127 4
-130 9 -3 4 4 21 16 38 14 20 19 37 14 55 -3 14 -2 31 4 38 6 6 10 14 11 17 0
6 10 38 20 65 6 14 2 26 -9 38 -16 17 -17 21 -3 49 l16 30 71 -6 c39 -3 103
-8 142 -12 66 -6 72 -5 99 20 26 24 26 26 7 26 -12 0 -23 8 -27 19 -6 20 -71
51 -108 51 -35 0 -107 33 -113 53 -3 9 4 32 15 51 27 43 26 63 -1 72 l-22 7
23 18 c13 11 32 19 42 19 10 0 23 9 29 20 6 11 17 20 25 20 8 0 15 5 15 12 0
15 -60 68 -77 68 -7 0 -21 4 -31 9 -9 5 -26 13 -37 17 -19 7 -19 8 4 12 13 2
28 -1 34 -7 6 -6 21 -11 33 -11 13 0 25 -4 28 -9 3 -4 26 -11 51 -14 25 -4 79
-18 120 -32 84 -28 131 -31 158 -11 25 19 21 30 -18 49 -19 9 -35 20 -35 25 0
5 -18 18 -39 30 -22 12 -41 26 -43 30 -6 13 -133 72 -156 72 -28 0 -102 37
-102 50 0 15 16 12 55 -10 38 -21 85 -27 85 -10 0 6 11 10 25 10 29 0 34 -16
8 -23 -11 -3 -8 -5 9 -6 22 -1 26 2 21 17 -10 29 -25 42 -47 42 -12 0 -27 9
-34 21 -7 12 -16 18 -19 15 -9 -9 -63 27 -63 41 0 7 -18 16 -40 19 -27 4 -41
13 -46 26 -9 29 0 32 56 21 27 -6 50 -7 50 -4 0 3 -18 19 -40 34 -42 29 -51
47 -25 47 8 0 15 7 15 15 0 8 -9 15 -20 15 -11 0 -20 -4 -20 -10 0 -14 -30 -8
-60 12 -40 27 -98 48 -113 42 -8 -3 -28 6 -45 20 -16 15 -37 26 -45 26 -9 0
-19 5 -22 10 -3 6 2 10 12 10 16 1 17 1 1 10 -11 7 -25 7 -42 0 -25 -9 -36
-30 -16 -30 6 0 18 -13 29 -30 10 -16 20 -27 24 -24 9 9 47 -16 47 -31 0 -15
-32 -16 -46 -2 -4 4 -16 7 -26 7 -10 0 -21 7 -24 15 -4 8 -17 15 -30 15 -13 0
-24 5 -24 10 0 6 -16 10 -36 10 -20 0 -46 8 -60 19 l-24 19 28 6 c15 4 35 9
45 12 11 4 17 0 17 -11 0 -9 5 -15 12 -13 18 6 21 28 4 28 -9 0 -16 7 -16 15
0 8 -9 15 -19 15 -11 0 -23 5 -26 11 -4 6 -19 7 -37 4 -24 -6 -30 -3 -35 13
-3 14 -19 23 -51 31 -52 13 -132 50 -132 61 0 4 -10 10 -22 14 -22 5 -22 6 -3
20 18 14 22 13 38 -5 18 -22 24 -21 64 18 7 6 18 13 25 15 22 8 -4 30 -29 25
-18 -3 -23 -1 -19 9 4 9 -2 14 -17 14 -20 0 -55 11 -117 37 -14 6 -28 9 -32 7
-4 -3 -9 4 -13 15 -4 12 -12 17 -24 14 -10 -2 -24 1 -32 9 -8 7 -31 14 -51 15
-29 2 -36 -1 -31 -12 6 -18 2 -18 -32 -3 -14 6 -25 20 -25 30 0 13 -10 20 -30
25 -35 6 -38 18 -10 33 14 7 26 8 39 0 27 -14 31 -13 31 9 0 15 -8 21 -32 23
-26 2 -39 -3 -60 -27 -14 -16 -30 -26 -35 -22 -4 5 2 16 14 25 16 12 20 21 13
32 -8 12 -13 13 -30 2 -11 -7 -20 -8 -20 -3 0 4 -18 11 -40 15 -23 3 -43 13
-46 21 -4 8 -14 15 -24 15 -24 0 -36 18 -21 33 9 9 17 8 31 -1 11 -7 31 -10
44 -6 21 5 24 3 19 -15 -6 -25 18 -29 37 -6 10 12 8 16 -14 25 -14 5 -26 14
-26 20 0 5 -7 10 -15 10 -8 0 -19 9 -25 19 -5 11 -19 23 -31 26 -14 5 -18 10
-11 17 14 14 62 1 62 -17 0 -8 7 -15 16 -15 8 0 12 5 9 10 -12 20 13 9 29 -12
l17 -23 -5 23 c-4 22 -3 23 12 9 26 -24 67 -37 83 -26 12 8 12 11 -2 22 -9 6
-33 26 -53 42 -21 17 -41 30 -44 31 -4 0 -20 6 -37 13 -29 12 -143 9 -180 -5
-14 -6 -13 -8 2 -20 17 -12 17 -13 -4 -14 -20 0 -23 5 -23 41 0 32 -3 40 -15
35 -8 -3 -15 -1 -15 4 0 6 7 10 16 10 13 0 15 7 11 30 -7 31 7 49 20 27 10
-17 63 -32 63 -18 0 6 7 8 16 4 11 -4 12 -8 4 -13 -11 -7 8 -13 70 -23 8 -1
15 2 15 7 0 6 -12 11 -27 13 -36 4 -67 31 -61 53 4 15 -3 18 -46 21 -28 2 -51
1 -51 -3 0 -11 -38 -10 -45 1 -3 5 3 12 12 14 10 3 -5 3 -34 1 -46 -3 -54 -1
-71 21 -11 14 -25 25 -31 25 -6 0 -13 11 -17 25 -5 21 -12 25 -41 25 -29 0
-34 3 -31 18 5 18 -7 34 -32 45 -8 3 3 4 25 2 22 -2 44 -4 49 -4 5 -1 2 -9 -5
-18 -12 -15 -12 -16 3 -10 10 3 24 -1 33 -10 9 -8 19 -12 23 -8 4 3 -1 12 -11
19 -9 7 -17 21 -17 30 0 9 -8 16 -20 16 -10 0 -24 9 -31 21 -6 13 -17 19 -27
16 -44 -12 -47 -12 -44 6 2 9 -2 17 -8 17 -6 0 -8 -5 -5 -10 13 -21 -23 -20
-90 3 -55 18 -70 27 -70 42 0 16 6 19 28 17 19 -2 27 2 27 13 0 8 -9 15 -20
15 -11 0 -20 5 -20 10 0 12 -117 13 -124 1z m79 -121 c3 -5 -3 -10 -15 -10
-12 0 -18 5 -15 10 3 6 10 10 15 10 5 0 12 -4 15 -10z m145 -65 c10 -12 10
-15 -4 -15 -9 0 -16 7 -16 15 0 8 2 15 4 15 2 0 9 -7 16 -15z m80 0 c0 -12
-19 -12 -23 0 -4 9 -1 12 9 8 7 -3 14 -7 14 -8z m-320 -5 c0 -5 -5 -10 -11
-10 -5 0 -7 5 -4 10 3 6 8 10 11 10 2 0 4 -4 4 -10z m313 -49 c17 -6 17 -8 3
-20 -12 -10 -19 -10 -36 2 -31 22 -8 35 33 18z m72 -41 c3 -6 -4 -10 -17 -10
-13 0 -33 -3 -45 -6 -15 -4 -23 -2 -23 6 0 7 7 10 15 7 8 -4 17 -2 20 3 8 13
42 13 50 0z m35 -20 c0 -5 -2 -10 -4 -10 -3 0 -8 5 -11 10 -3 6 -1 10 4 10 6
0 11 -4 11 -10z m55 -40 c-3 -5 1 -10 9 -10 8 0 28 -11 43 -25 27 -23 27 -24
6 -25 -12 0 -34 11 -48 25 -26 27 -32 45 -14 45 5 0 7 -4 4 -10z m40 -110 c4
-6 -7 -10 -24 -10 -17 0 -31 5 -31 10 0 6 11 10 24 10 14 0 28 -4 31 -10z
m-95 -20 c0 -5 -9 -10 -20 -10 -11 0 -20 5 -20 10 0 6 9 10 20 10 11 0 20 -4
20 -10z m-93 -56 c-3 -3 -12 -4 -19 -1 -8 3 -5 6 6 6 11 1 17 -2 13 -5z m331
-66 c45 -23 60 -55 20 -43 -96 28 -126 44 -114 63 8 13 40 6 94 -20z m66 -145
c3 -4 16 -8 29 -10 12 -2 26 -8 31 -13 6 -6 18 -10 28 -10 10 0 18 -4 18 -10
0 -14 -58 0 -110 26 -31 16 -39 24 -24 24 11 0 24 -3 28 -7z m482 -198 c19
-19 7 -24 -29 -14 -41 12 -43 12 -60 -5 -21 -21 -87 -25 -87 -5 0 7 11 8 29 4
34 -7 49 9 29 32 -12 14 -7 15 46 9 33 -5 65 -14 72 -21z m-209 -11 c-3 -3
-12 -4 -19 -1 -8 3 -5 6 6 6 11 1 17 -2 13 -5z m293 -24 c0 -5 -4 -10 -9 -10
-6 0 -13 5 -16 10 -3 6 1 10 9 10 9 0 16 -4 16 -10z m55 -10 c-3 -5 -10 -10
-16 -10 -5 0 -9 5 -9 10 0 6 7 10 16 10 8 0 12 -4 9 -10z m-109 -45 l27 -25
-27 0 c-28 0 -56 20 -56 39 0 19 28 12 56 -14z m87 -73 c9 -8 15 -17 13 -19
-4 -4 -86 37 -86 43 0 9 56 -9 73 -24z m-78 -72 c3 -5 -1 -10 -9 -10 -9 0 -16
5 -16 10 0 6 4 10 9 10 6 0 13 -4 16 -10z m610 -140 c3 -5 -1 -10 -9 -10 -9 0
-16 5 -16 10 0 6 4 10 9 10 6 0 13 -4 16 -10z m-246 -29 c9 -6 10 -11 2 -15
-13 -8 -31 1 -31 15 0 11 11 11 29 0z m331 -13 c42 -13 49 -22 26 -31 -15 -6
-86 23 -86 35 0 11 14 10 60 -4z m-185 -12 c20 -1 39 2 41 6 3 4 11 5 19 3 8
-3 22 -7 31 -10 8 -3 12 -10 9 -15 -5 -8 -11 -7 -21 1 -9 8 -18 8 -26 2 -19
-15 -66 -24 -70 -14 -2 8 -36 14 -111 20 -5 1 -5 6 -2 11 4 7 24 8 50 5 24 -4
59 -8 80 -9z m113 -68 c-3 -7 -11 -13 -18 -13 -7 0 -15 6 -17 13 -3 7 4 12 17
12 13 0 20 -5 18 -12z m90 -50 c13 -9 31 -15 40 -12 9 2 7 -1 -5 -7 -29 -15
-85 -4 -101 21 -8 13 -8 20 -1 20 5 0 7 5 4 11 -8 11 26 -6 63 -33z m-258 21
c0 -6 -9 -13 -20 -16 -26 -7 -26 -21 2 -25 12 -2 23 -10 26 -18 4 -12 2 -13
-9 -2 -7 6 -26 12 -41 12 -35 0 -36 13 -2 39 30 23 44 27 44 10z m-203 -25
c-3 -3 -12 -4 -19 -1 -8 3 -5 6 6 6 11 1 17 -2 13 -5z m403 -50 c0 -2 -30 -3
-67 -3 -57 2 -61 3 -28 8 39 6 95 3 95 -5z m60 -34 c0 -5 -4 -10 -10 -10 -5 0
-10 5 -10 10 0 6 5 10 10 10 6 0 10 -4 10 -10z m-52 -167 c-10 -2 -26 -2 -35
0 -10 3 -2 5 17 5 19 0 27 -2 18 -5z m505 -1095 c-13 -12 -25 -19 -29 -15 -10
10 16 37 34 37 13 0 12 -4 -5 -22z m-273 -43 c0 -8 -8 -15 -17 -16 -10 -1 -36
-2 -58 -4 l-40 -3 50 18 c63 23 65 23 65 5z m560 -5 c0 -5 -7 -10 -16 -10 -8
0 -12 5 -9 10 3 6 10 10 16 10 5 0 9 -4 9 -10z m-423 -6 c-3 -3 -12 -4 -19 -1
-8 3 -5 6 6 6 11 1 17 -2 13 -5z m93 -8 c0 -3 -4 -8 -10 -11 -5 -3 -10 -1 -10
4 0 6 5 11 10 11 6 0 10 -2 10 -4z m-151 -35 c-15 -5 -22 6 -14 19 6 9 10 9
16 -1 5 -8 4 -15 -2 -18z m-143 -2 c11 -19 -10 -29 -49 -22 -40 6 -39 18 3 26
14 2 28 5 32 6 4 0 10 -4 14 -10z m112 -11 c-7 -20 -68 -23 -68 -4 0 12 10 16
36 16 24 0 34 -4 32 -12z m87 -39 c12 -19 -5 -23 -22 -6 -16 16 -16 17 -1 17
9 0 20 -5 23 -11z m-46 -33 c8 -10 9 -16 1 -21 -5 -3 -10 -1 -10 4 0 6 -7 11
-15 11 -8 0 -15 5 -15 10 0 15 26 12 39 -4z m3 -78 c-18 -19 -22 -20 -22 -6 0
9 8 21 17 27 27 15 29 3 5 -21z m1031 -35 c-7 -2 -21 -2 -30 0 -10 3 -4 5 12
5 17 0 24 -2 18 -5z m-978 -13 c3 -5 1 -10 -4 -10 -6 0 -11 5 -11 10 0 6 2 10
4 10 3 0 8 -4 11 -10z m1015 -14 c0 -3 -4 -8 -10 -11 -5 -3 -10 -1 -10 4 0 6
5 11 10 11 6 0 10 -2 10 -4z m62 -48 c-6 -6 -15 -8 -19 -4 -4 4 -1 11 7 16 19
12 27 3 12 -12z m-1065 -4 c-3 -3 -12 -4 -19 -1 -8 3 -5 6 6 6 11 1 17 -2 13
-5z m183 -47 c0 -7 -5 -18 -12 -25 -15 -15 -58 -16 -58 -2 0 6 9 10 20 10 11
0 23 7 26 15 7 18 24 20 24 2z m630 3 c0 -5 -5 -10 -11 -10 -5 0 -7 5 -4 10 3
6 8 10 11 10 2 0 4 -4 4 -10z m-550 -35 c0 -17 -35 -55 -51 -55 -25 0 -24 20
1 27 11 3 20 12 20 19 0 8 7 14 15 14 8 0 15 -2 15 -5z m604 -10 c-6 -16 -24
-21 -24 -7 0 11 11 22 21 22 5 0 6 -7 3 -15z m-364 -30 c0 -15 -34 -55 -46
-55 -8 0 -17 -7 -20 -15 -6 -14 -34 -22 -34 -9 0 9 31 33 58 44 12 5 22 16 22
25 0 8 5 15 10 15 6 0 10 -2 10 -5z m80 -39 c0 -2 -7 -7 -16 -10 -8 -3 -12 -2
-9 4 6 10 25 14 25 6z m105 -33 c-8 -45 -12 -50 -25 -37 -15 15 -1 74 17 74
12 0 14 -8 8 -37z m-445 7 c0 -5 -4 -10 -10 -10 -5 0 -10 5 -10 10 0 6 5 10
10 10 6 0 10 -4 10 -10z m2979 -352 c2 -7 15 -23 28 -35 l24 -23 -25 0 c-16 0
-27 7 -31 20 -3 11 -13 20 -21 20 -8 0 -14 5 -14 12 0 6 -8 20 -17 30 -16 18
-15 18 17 4 19 -8 36 -20 39 -28z m106 -78 c4 -6 -5 -10 -20 -10 -15 0 -24 4
-20 10 3 6 12 10 20 10 8 0 17 -4 20 -10z m35 -20 c0 -5 -5 -10 -11 -10 -5 0
-7 5 -4 10 3 6 8 10 11 10 2 0 4 -4 4 -10z m-80 -16 c0 -14 -3 -14 -15 -4 -8
7 -15 14 -15 16 0 2 7 4 15 4 8 0 15 -7 15 -16z m647 -386 c-3 -8 -6 -5 -6 6
-1 11 2 17 5 13 3 -3 4 -12 1 -19z m63 -18 c6 -11 9 -20 7 -20 -2 0 -12 9 -22
20 -10 11 -13 20 -7 20 6 0 16 -9 22 -20z m210 -55 c0 -8 -4 -15 -10 -15 -5 0
-10 7 -10 15 0 8 5 15 10 15 6 0 10 -7 10 -15z m610 -51 c0 -13 -4 -24 -9 -24
-13 0 -24 37 -16 50 10 16 25 1 25 -26z m-565 -4 c3 -5 2 -10 -4 -10 -5 0 -13
5 -16 10 -3 6 -2 10 4 10 5 0 13 -4 16 -10z m1022 -43 c-6 -19 -22 -6 -25 20
-2 27 -2 27 13 8 8 -10 14 -23 12 -28z m133 33 c0 -5 -4 -10 -10 -10 -5 0 -10
5 -10 10 0 6 5 10 10 10 6 0 10 -4 10 -10z m81 -73 c-13 -13 -26 -3 -16 12 3
6 11 8 17 5 6 -4 6 -10 -1 -17z m-1281 -2051 c0 -3 -4 -8 -10 -11 -5 -3 -10
-1 -10 4 0 6 5 11 10 11 6 0 10 -2 10 -4z m-1935 -186 c3 -5 1 -10 -4 -10 -6
0 -11 5 -11 10 0 6 2 10 4 10 3 0 8 -4 11 -10z m22 -86 c3 -8 1 -20 -6 -27 -8
-8 -11 -8 -11 0 0 6 -3 18 -6 27 -3 9 -1 16 5 16 7 0 14 -7 18 -16z"/>
<path d="M1136 6892 c-3 -4 10 -14 29 -20 18 -7 36 -19 39 -27 7 -20 36 -19
36 0 0 8 -9 15 -20 15 -11 0 -20 4 -20 9 0 5 -8 11 -17 15 -10 3 -23 8 -30 12
-6 3 -14 1 -17 -4z"/>
<path d="M5303 6885 c-8 -23 4 -30 21 -12 8 8 12 17 9 21 -11 11 -23 7 -30 -9z"/>
<path d="M6475 6890 c-3 -5 -1 -10 4 -10 6 0 11 5 11 10 0 6 -2 10 -4 10 -3 0
-8 -4 -11 -10z"/>
<path d="M4310 6865 c0 -15 4 -24 10 -20 6 3 10 12 10 20 0 8 -4 17 -10 20 -6
4 -10 -5 -10 -20z"/>
<path d="M4900 6845 c0 -9 5 -15 11 -13 6 2 11 8 11 13 0 5 -5 11 -11 13 -6 2
-11 -4 -11 -13z"/>
<path d="M6276 6840 c-19 -6 -19 -7 2 -12 12 -4 24 -2 27 2 8 13 -8 18 -29 10z"/>
<path d="M955 6830 c-4 -6 3 -10 14 -10 25 0 27 6 6 13 -8 4 -17 2 -20 -3z"/>
<path d="M6100 6830 c-11 -7 -12 -12 -4 -20 8 -8 13 -6 17 9 3 12 4 21 4 21
-1 0 -9 -5 -17 -10z"/>
<path d="M1128 6823 c7 -3 16 -2 19 1 4 3 -2 6 -13 5 -11 0 -14 -3 -6 -6z"/>
<path d="M6298 6760 c-30 -31 -35 -40 -25 -53 11 -14 14 -14 31 -2 11 8 16 15
12 15 -4 0 1 12 12 28 31 45 34 52 20 51 -7 -1 -30 -19 -50 -39z"/>
<path d="M6202 6778 c-7 -7 -12 -18 -12 -25 0 -7 -9 -17 -20 -23 -11 -6 -20
-17 -20 -25 0 -8 -7 -15 -15 -15 -8 0 -15 -4 -15 -10 0 -19 13 -10 62 41 26
28 46 55 43 60 -8 12 -9 11 -23 -3z"/>
<path d="M4880 6770 c-8 -5 -26 -10 -40 -10 -25 0 -25 -2 -26 -79 0 -75 1 -80
22 -84 13 -2 29 0 36 4 9 6 7 9 -8 9 -31 0 -34 8 -18 52 7 22 11 44 8 49 -3 5
0 10 5 10 6 1 15 2 21 3 19 2 32 24 23 40 -6 10 -13 12 -23 6z"/>
<path d="M4760 6750 c0 -5 5 -10 11 -10 5 0 7 5 4 10 -3 6 -8 10 -11 10 -2 0
-4 -4 -4 -10z"/>
<path d="M4945 6752 c-27 -19 -49 -102 -27 -102 4 0 8 -10 9 -22 2 -20 18 -38
36 -38 5 0 5 10 1 23 -8 23 -7 91 2 119 5 18 -7 30 -21 20z"/>
<path d="M5085 6740 c-7 -11 2 -30 13 -30 4 0 8 9 9 20 2 21 -11 27 -22 10z"/>
<path d="M6465 6726 c-11 -6 -31 -17 -44 -25 -17 -9 -20 -16 -12 -24 8 -8 17
-5 33 10 13 11 31 25 42 30 10 6 15 12 10 15 -5 3 -18 0 -29 -6z"/>
<path d="M4630 6700 c0 -5 5 -10 10 -10 6 0 10 5 10 10 0 6 -4 10 -10 10 -5 0
-10 -4 -10 -10z"/>
<path d="M6231 6686 c-8 -9 -11 -19 -7 -23 9 -9 29 13 24 27 -2 8 -8 7 -17 -4z"/>
<path d="M6355 6689 c-4 -6 -5 -13 -2 -16 7 -7 27 6 27 18 0 12 -17 12 -25 -2z"/>
<path d="M6726 6675 c-8 -8 -19 -15 -23 -15 -5 0 -27 -15 -49 -33 -21 -19 -47
-36 -56 -40 -10 -3 -18 -11 -18 -17 0 -16 13 -12 42 15 15 14 34 25 41 25 8 0
17 7 21 15 3 8 13 15 23 15 10 1 32 12 48 25 28 23 28 25 8 25 -12 0 -28 -7
-37 -15z"/>
<path d="M2165 6670 c3 -5 10 -10 16 -10 5 0 9 5 9 10 0 6 -7 10 -16 10 -8 0
-12 -4 -9 -10z"/>
<path d="M6590 6670 c0 -5 4 -10 9 -10 6 0 13 5 16 10 3 6 -1 10 -9 10 -9 0
-16 -4 -16 -10z"/>
<path d="M1227 6646 c-4 -9 -3 -18 2 -20 13 -8 52 6 48 18 -6 17 -44 19 -50 2z"/>
<path d="M6305 6650 c-3 -5 -2 -10 4 -10 5 0 13 5 16 10 3 6 2 10 -4 10 -5 0
-13 -4 -16 -10z"/>
<path d="M6550 6650 c0 -6 7 -10 15 -10 8 0 15 2 15 4 0 2 -7 6 -15 10 -8 3
-15 1 -15 -4z"/>
<path d="M6260 6620 c0 -13 7 -20 20 -20 11 0 20 -4 20 -10 0 -15 12 -12 38 8
20 16 22 20 9 30 -12 10 -15 10 -13 0 1 -14 -5 -18 -29 -18 -8 0 -15 7 -15 15
0 8 -7 15 -15 15 -8 0 -15 -9 -15 -20z"/>
<path d="M6460 6632 c-50 -23 -82 -60 -40 -47 11 4 20 2 20 -4 0 -21 29 -10
49 18 12 16 21 32 21 35 0 8 -31 6 -50 -2z m10 -27 c11 -13 10 -14 -4 -9 -9 3
-16 10 -16 15 0 13 6 11 20 -6z"/>
<path d="M6272 6548 c-18 -18 -15 -41 4 -34 9 3 18 6 20 6 2 0 4 9 4 20 0 23
-10 26 -28 8z"/>
<path d="M6312 6501 c-19 -21 -42 -52 -53 -70 -10 -17 -25 -31 -33 -31 -8 0
-21 -8 -28 -18 -12 -17 -58 -28 -58 -14 0 4 14 18 30 31 17 13 30 32 30 42 0
18 -2 18 -37 -2 -21 -12 -44 -30 -51 -40 -7 -10 -19 -24 -27 -32 -17 -18 -7
-31 12 -16 26 23 12 -3 -24 -42 -21 -22 -44 -51 -53 -63 -8 -13 -34 -43 -57
-66 -24 -23 -43 -46 -43 -51 0 -4 -9 -11 -21 -14 -12 -4 -18 -13 -15 -20 3 -8
-1 -15 -9 -17 -12 -3 -12 -6 0 -22 13 -17 15 -17 42 8 15 14 31 26 35 26 4 0
10 9 13 21 4 11 21 36 38 54 l32 35 21 -25 21 -24 13 24 c7 14 21 25 31 25 38
0 100 73 85 99 -8 13 -46 1 -46 -13 0 -7 -10 -12 -21 -12 -12 1 -24 -5 -27
-13 -3 -10 0 -12 11 -8 8 3 18 3 21 -1 9 -9 -56 -29 -77 -24 -16 4 -14 9 15
38 18 18 41 34 51 34 11 0 17 6 15 17 -2 10 3 18 12 18 22 1 72 27 99 52 14
12 28 20 32 17 4 -2 19 6 32 18 20 19 23 28 15 47 -7 19 -5 27 7 33 15 9 21
39 8 37 -5 0 -23 -17 -41 -38z"/>
<path d="M6487 6510 c-21 -16 -33 -31 -28 -34 13 -8 39 3 67 29 48 44 18 48
-39 5z"/>
<path d="M1376 6467 c-14 -10 -16 -16 -7 -22 15 -9 35 8 30 24 -3 8 -10 7 -23
-2z"/>
<path d="M6225 6460 c3 -5 8 -10 11 -10 2 0 4 5 4 10 0 6 -5 10 -11 10 -5 0
-7 -4 -4 -10z"/>
<path d="M1730 6390 c0 -5 5 -10 11 -10 5 0 7 5 4 10 -3 6 -8 10 -11 10 -2 0
-4 -4 -4 -10z"/>
<path d="M6480 6390 c0 -5 4 -10 9 -10 6 0 13 5 16 10 3 6 -1 10 -9 10 -9 0
-16 -4 -16 -10z"/>
<path d="M1920 6379 c0 -5 5 -7 10 -4 6 3 10 8 10 11 0 2 -4 4 -10 4 -5 0 -10
-5 -10 -11z"/>
<path d="M6630 6370 c-9 -6 -10 -10 -3 -10 6 0 15 5 18 10 8 12 4 12 -15 0z"/>
<path d="M1760 6360 c0 -5 9 -10 20 -10 11 0 20 5 20 10 0 6 -9 10 -20 10 -11
0 -20 -4 -20 -10z"/>
<path d="M1978 6310 c12 -5 22 -14 22 -20 0 -5 12 -10 26 -10 14 0 23 4 19 10
-3 6 -15 10 -26 10 -10 0 -19 5 -19 10 0 6 -10 10 -22 9 l-23 0 23 -9z"/>
<path d="M1914 6255 c16 -13 33 -22 39 -18 13 8 -29 43 -52 43 -11 0 -8 -7 13
-25z"/>
<path d="M2560 6271 c0 -14 46 -44 60 -39 16 5 -10 35 -37 43 -14 4 -23 2 -23
-4z"/>
<path d="M1750 6250 c0 -5 7 -10 15 -10 8 0 15 5 15 10 0 6 -7 10 -15 10 -8 0
-15 -4 -15 -10z"/>
<path d="M1623 6233 c9 -2 23 -2 30 0 6 3 -1 5 -18 5 -16 0 -22 -2 -12 -5z"/>
<path d="M1970 6230 c0 -4 9 -10 20 -13 11 -3 20 -2 20 3 0 4 -9 10 -20 13
-11 3 -20 2 -20 -3z"/>
<path d="M6481 6216 c-13 -14 -20 -30 -16 -36 9 -14 53 -4 78 17 20 19 22 34
3 27 -8 -3 -17 -1 -21 5 -10 16 -19 13 -44 -13z"/>
<path d="M1646 6204 c-4 -11 -1 -14 11 -12 9 2 18 9 21 16 6 18 -25 15 -32 -4z"/>
<path d="M1805 6190 c-13 -26 -14 -30 -1 -30 8 0 18 5 21 10 4 6 11 8 16 4 15
-9 0 -24 -26 -24 -30 0 -55 -10 -55 -21 0 -5 13 -8 28 -7 32 2 52 -8 52 -26 0
-11 38 -27 75 -30 6 -1 21 -9 35 -19 13 -9 32 -17 42 -17 9 0 21 -7 26 -16 5
-9 18 -14 33 -12 20 2 24 8 22 33 -1 17 -10 35 -19 40 -10 6 -25 17 -35 27 -9
9 -25 18 -35 20 -10 2 -21 14 -24 28 -3 14 -14 26 -25 29 -11 2 -39 12 -62 22
-23 10 -44 19 -47 19 -3 0 -12 -13 -21 -30z m105 -56 c0 -2 -12 -4 -26 -4 -14
0 -23 4 -20 9 6 8 46 4 46 -5z m97 -86 c-3 -8 -6 -5 -6 6 -1 11 2 17 5 13 3
-3 4 -12 1 -19z m43 -18 c0 -5 -5 -10 -11 -10 -5 0 -7 5 -4 10 3 6 8 10 11 10
2 0 4 -4 4 -10z"/>
<path d="M6240 6209 c0 -5 5 -7 10 -4 6 3 10 8 10 11 0 2 -4 4 -10 4 -5 0 -10
-5 -10 -11z"/>
<path d="M2185 6200 c3 -5 13 -10 21 -10 8 0 12 5 9 10 -3 6 -13 10 -21 10 -8
0 -12 -4 -9 -10z"/>
<path d="M6205 6200 c-3 -5 1 -10 9 -10 9 0 16 5 16 10 0 6 -4 10 -9 10 -6 0
-13 -4 -16 -10z"/>
<path d="M6425 6171 c-3 -5 4 -13 16 -16 28 -9 33 -2 9 13 -11 6 -21 8 -25 3z"/>
<path d="M2320 6145 c7 -8 20 -15 29 -15 13 1 13 3 -3 15 -26 19 -42 19 -26 0z"/>
<path d="M6676 6151 c-3 -5 -22 -12 -42 -15 -21 -4 -34 -12 -31 -19 7 -22 32
-17 66 13 18 17 29 30 23 30 -6 0 -13 -4 -16 -9z"/>
<path d="M2115 6131 c-10 -18 19 -51 35 -41 11 7 12 14 4 27 -13 21 -30 27
-39 14z"/>
<path d="M6030 6129 c0 -5 5 -7 10 -4 6 3 10 8 10 11 0 2 -4 4 -10 4 -5 0 -10
-5 -10 -11z"/>
<path d="M6422 6123 c-15 -6 -6 -23 14 -23 8 0 14 7 14 15 0 15 -6 17 -28 8z"/>
<path d="M6745 6110 c-3 -5 -1 -10 4 -10 6 0 11 5 11 10 0 6 -2 10 -4 10 -3 0
-8 -4 -11 -10z"/>
<path d="M5998 6083 c7 -3 16 -2 19 1 4 3 -2 6 -13 5 -11 0 -14 -3 -6 -6z"/>
<path d="M6288 6083 c7 -3 16 -2 19 1 4 3 -2 6 -13 5 -11 0 -14 -3 -6 -6z"/>
<path d="M5960 6055 c-7 -8 -19 -15 -26 -15 -8 0 -14 -4 -14 -10 0 -5 6 -10
13 -10 16 0 53 38 45 45 -3 3 -11 -1 -18 -10z"/>
<path d="M6155 6059 c-9 -14 -2 -20 14 -10 8 6 9 11 3 15 -6 3 -14 1 -17 -5z"/>
<path d="M2785 6030 c3 -5 8 -10 11 -10 2 0 4 5 4 10 0 6 -5 10 -11 10 -5 0
-7 -4 -4 -10z"/>
<path d="M2536 6016 c7 -19 27 -26 44 -16 10 6 8 11 -8 19 -28 15 -42 14 -36
-3z"/>
<path d="M6097 6023 c-12 -11 -8 -23 8 -23 8 0 15 7 15 15 0 16 -12 20 -23 8z"/>
<path d="M2225 6000 c3 -5 10 -10 16 -10 5 0 9 5 9 10 0 6 -7 10 -16 10 -8 0
-12 -4 -9 -10z"/>
<path d="M5904 6002 c2 -4 -13 -23 -35 -42 -22 -18 -49 -51 -61 -72 -12 -21
-25 -38 -28 -38 -11 0 -83 -70 -77 -76 2 -3 12 2 20 11 9 8 21 15 27 15 26 0
70 32 76 55 5 20 9 23 20 14 19 -15 84 9 84 32 0 10 6 20 13 22 7 4 3 8 -10
12 -25 8 -28 17 -13 45 7 13 6 19 -6 24 -8 3 -13 2 -10 -2z m-4 -72 c0 -5 -7
-10 -16 -10 -8 0 -12 5 -9 10 3 6 10 10 16 10 5 0 9 -4 9 -10z m-20 -30 c0 -5
-4 -10 -10 -10 -5 0 -10 5 -10 10 0 6 5 10 10 10 6 0 10 -4 10 -10z"/>
<path d="M6042 5994 c-12 -8 -22 -24 -22 -35 0 -24 11 -24 32 0 8 10 22 21 29
23 7 2 9 10 5 16 -10 16 -17 15 -44 -4z"/>
<path d="M6160 5986 c0 -8 -6 -17 -12 -19 -7 -3 -8 -6 -3 -6 6 0 21 8 35 19
l25 20 -22 0 c-13 0 -23 -6 -23 -14z"/>
<path d="M2616 5955 c21 -19 47 -35 57 -35 25 0 21 7 -15 26 -18 9 -37 23 -41
30 -4 8 -15 14 -24 14 -11 0 -3 -12 23 -35z"/>
<path d="M2160 5899 c0 -18 2 -19 15 -9 12 10 18 8 33 -10 12 -15 25 -21 35
-17 22 8 22 26 0 33 -10 3 -26 10 -35 15 -29 15 -48 10 -48 -12z"/>
<path d="M2975 5910 c3 -5 8 -10 11 -10 2 0 4 5 4 10 0 6 -5 10 -11 10 -5 0
-7 -4 -4 -10z"/>
<path d="M6168 5876 c-10 -7 -18 -18 -18 -25 0 -6 -8 -11 -17 -11 -13 0 -14
-3 -6 -11 8 -8 19 -3 42 20 17 18 31 34 31 36 0 9 -15 5 -32 -9z"/>
<path d="M2540 5858 c0 -8 19 -19 45 -26 54 -14 75 -15 75 -3 0 9 -32 23 -65
26 -11 2 -28 6 -37 10 -12 5 -18 3 -18 -7z"/>
<path d="M6085 5824 c9 -9 19 -13 23 -10 3 4 0 11 -8 16 -24 15 -33 11 -15 -6z"/>
<path d="M6018 5796 c-24 -18 -23 -35 2 -29 11 3 20 11 20 18 0 7 6 16 13 18
8 4 7 6 -3 6 -8 0 -23 -6 -32 -13z"/>
<path d="M6180 5800 c0 -5 4 -10 9 -10 6 0 13 5 16 10 3 6 -1 10 -9 10 -9 0
-16 -4 -16 -10z"/>
<path d="M2766 5767 c3 -10 9 -15 12 -12 3 3 0 11 -7 18 -10 9 -11 8 -5 -6z"/>
<path d="M2650 5739 c57 -46 170 -93 170 -71 0 10 -42 40 -73 52 -17 7 -46 19
-64 26 -45 20 -62 17 -33 -7z"/>
<path d="M2370 5718 c0 -22 32 -24 49 -4 9 11 6 15 -19 18 -24 4 -30 1 -30
-14z"/>
<path d="M5985 5730 c-3 -5 -1 -10 4 -10 6 0 11 5 11 10 0 6 -2 10 -4 10 -3 0
-8 -4 -11 -10z"/>
<path d="M2618 5673 c8 -3 34 -25 59 -50 24 -25 47 -42 51 -39 9 10 -85 96
-105 95 -12 0 -13 -2 -5 -6z"/>
<path d="M2863 5603 c9 -2 23 -2 30 0 6 3 -1 5 -18 5 -16 0 -22 -2 -12 -5z"/>
<path d="M2993 5579 c6 -10 20 -19 30 -19 27 0 15 23 -16 31 -24 6 -25 5 -14
-12z"/>
<path d="M2880 5514 c0 -16 46 -41 56 -31 10 9 -13 34 -36 40 -13 3 -20 0 -20
-9z"/>
<path d="M2930 5370 c0 -5 5 -10 11 -10 5 0 7 5 4 10 -3 6 -8 10 -11 10 -2 0
-4 -4 -4 -10z"/>
<path d="M7325 5348 c-22 -5 -76 -14 -120 -19 -162 -18 -282 -43 -301 -62 -4
-4 -18 -7 -30 -7 -25 0 -92 -23 -136 -46 -14 -8 -36 -14 -47 -14 -12 0 -21 -4
-21 -8 0 -5 -10 -14 -22 -20 -18 -8 -19 -11 -6 -11 9 -1 20 4 23 9 3 6 22 10
41 10 19 0 34 3 34 8 0 4 24 13 53 20 28 7 62 15 75 18 12 4 22 2 22 -2 0 -5
-32 -20 -71 -32 -67 -22 -141 -53 -216 -90 -82 -41 7 -58 111 -22 32 11 88 26
124 34 37 8 99 23 137 34 219 60 434 89 737 100 184 7 199 8 219 29 26 26 20
49 -18 65 -34 14 -528 19 -588 6z"/>
<path d="M6908 5063 c6 -2 18 -2 25 0 6 3 1 5 -13 5 -14 0 -19 -2 -12 -5z"/>
<path d="M7060 4811 c-8 -6 -18 -8 -22 -5 -4 3 -21 -2 -37 -11 -17 -8 -45 -16
-63 -16 l-33 -1 30 -7 c28 -6 25 -8 -30 -20 -76 -18 -126 -43 -144 -72 l-13
-22 83 6 c231 18 455 26 621 23 167 -4 245 -11 511 -46 100 -13 133 -9 142 20
11 34 -11 56 -72 72 -74 20 -210 48 -293 59 -36 5 -95 14 -132 19 -84 13 -528
13 -548 1z"/>
<path d="M4920 4344 c0 -8 5 -12 10 -9 6 3 10 10 10 16 0 5 -4 9 -10 9 -5 0
-10 -7 -10 -16z"/>
<path d="M7008 4293 c-10 -2 -18 -9 -18 -15 0 -7 -13 -8 -35 -5 -19 3 -37 1
-40 -4 -4 -5 -15 -9 -26 -9 -10 0 -19 -4 -19 -10 0 -18 37 -29 131 -40 52 -6
119 -15 149 -20 144 -26 229 -42 275 -51 94 -20 360 -91 464 -125 57 -19 112
-34 121 -34 24 0 42 24 38 52 -4 27 -49 52 -203 113 -22 9 -49 20 -60 24 -11
5 -49 17 -85 26 -36 10 -85 23 -110 30 -25 7 -70 18 -100 24 -30 5 -68 13 -85
16 -145 30 -340 43 -397 28z"/>
<path d="M2833 4173 c-7 -2 -13 -11 -13 -19 0 -8 -7 -14 -15 -14 -9 0 -25 -9
-37 -20 -23 -21 -17 -24 17 -11 14 6 24 3 32 -8 11 -15 12 -14 13 1 0 9 7 21
16 26 11 6 13 12 6 16 -6 4 -9 13 -5 21 5 16 5 16 -14 8z"/>
<path d="M3002 4114 c2 -11 11 -18 21 -18 9 1 17 -2 17 -8 0 -5 5 -6 10 -3 15
9 12 22 -7 29 -10 3 -24 9 -31 12 -10 4 -13 0 -10 -12z"/>
<path d="M3755 4059 c-10 -15 3 -25 16 -12 7 7 7 13 1 17 -6 3 -14 1 -17 -5z"/>
<path d="M3876 4023 c-11 -11 -6 -23 9 -23 8 0 15 4 15 9 0 13 -16 22 -24 14z"/>
<path d="M3965 3930 c-11 -17 5 -32 21 -19 8 6 14 15 14 20 0 12 -27 11 -35
-1z"/>
<path d="M4232 3910 c-7 -11 -8 -20 -3 -20 9 0 24 30 18 36 -1 2 -8 -6 -15
-16z"/>
<path d="M4321 3851 c-23 -20 -21 -41 4 -41 12 0 31 47 22 56 -2 2 -14 -5 -26
-15z"/>
<path d="M4200 3710 c0 -5 4 -10 9 -10 6 0 13 5 16 10 3 6 -1 10 -9 10 -9 0
-16 -4 -16 -10z"/>
<path d="M4197 3643 c-12 -11 -8 -23 8 -23 8 0 15 7 15 15 0 16 -12 20 -23 8z"/>
<path d="M4154 3589 c-3 -6 -1 -16 5 -22 8 -8 11 -5 11 11 0 24 -5 28 -16 11z"/>
<path d="M6430 3094 c0 -3 11 -15 25 -26 13 -10 24 -22 24 -26 -1 -4 -1 -14 0
-22 1 -12 5 -11 16 4 13 18 16 16 58 -25 24 -24 46 -52 50 -61 6 -16 37 -26
37 -12 0 5 -51 72 -80 105 -14 16 -110 69 -124 69 -3 0 -6 -3 -6 -6z"/>
<path d="M6720 3020 c0 -5 7 -10 16 -10 8 0 12 5 9 10 -3 6 -10 10 -16 10 -5
0 -9 -4 -9 -10z"/>
<path d="M6660 2850 c0 -5 5 -10 10 -10 6 0 10 5 10 10 0 6 -4 10 -10 10 -5 0
-10 -4 -10 -10z"/>
<path d="M6686 2811 c-7 -10 22 -37 30 -28 9 8 -3 37 -15 37 -5 0 -12 -4 -15
-9z"/>
<path d="M7201 2804 c0 -11 3 -14 6 -6 3 7 2 16 -1 19 -3 4 -6 -2 -5 -13z"/>
<path d="M7300 2810 c0 -5 5 -10 11 -10 5 0 7 5 4 10 -3 6 -8 10 -11 10 -2 0
-4 -4 -4 -10z"/>
<path d="M6840 2760 c0 -5 5 -10 10 -10 6 0 10 5 10 10 0 6 -4 10 -10 10 -5 0
-10 -4 -10 -10z"/>
<path d="M7220 2760 c0 -5 5 -10 11 -10 5 0 7 5 4 10 -3 6 -8 10 -11 10 -2 0
-4 -4 -4 -10z"/>
<path d="M7933 2605 c-6 -14 -7 -23 -2 -20 5 3 18 1 29 -5 24 -13 27 5 6 33
-17 22 -19 22 -33 -8z"/>
<path d="M943 393 c-18 -7 -16 -23 2 -23 8 0 15 7 15 15 0 8 -1 15 -2 14 -2 0
-9 -3 -15 -6z"/>
<path d="M903 313 c10 -9 57 -10 57 -1 0 4 -14 8 -32 8 -17 0 -28 -3 -25 -7z"/>
<path d="M955 270 c-3 -5 -1 -10 4 -10 6 0 11 5 11 10 0 6 -2 10 -4 10 -3 0
-8 -4 -11 -10z"/>
<path d="M1023 48 c-18 -20 -18 -21 7 -13 34 10 44 21 27 28 -8 3 -23 -4 -34
-15z"/>
</g>
</svg>
